<svg width="250" height="250" viewBox="0 0 250 250" fill="none" xmlns="http://www.w3.org/2000/svg">
<g clip-path="url(#clip0_25_2)">
<path d="M129.395 35.4004C129.622 35.4585 129.622 35.4585 129.853 35.5177C130.37 35.6532 130.881 35.8002 131.393 35.9497C131.647 36.0201 131.647 36.0201 131.905 36.0918C133.165 36.4583 134.327 36.9584 135.515 37.5129C136.508 37.9693 137.516 38.385 138.525 38.8045C141.053 39.8565 143.533 40.9493 145.962 42.2124C146.575 42.5272 147.193 42.8326 147.812 43.1376C149.962 44.1985 152.088 45.261 154.141 46.5002C154.816 46.8929 155.502 47.2365 156.204 47.5769C162.277 50.5775 162.277 50.5775 163.502 54.0209C164.247 56.058 165.128 58.0104 166.061 59.9671C166.23 60.3239 166.399 60.6808 166.568 61.0377C167.867 63.7719 169.217 66.4794 170.578 69.1834C173.304 74.6012 175.827 80.098 178.279 85.6444C179.221 87.7743 180.17 89.898 181.183 91.9953C183.591 96.9814 185.822 102.045 187.925 107.167C188.605 108.811 189.305 110.447 190.002 112.085C190.494 113.243 190.979 114.403 191.442 115.574C191.877 116.673 192.38 117.729 192.906 118.788C193.147 119.476 193.167 119.701 192.871 120.361C192.551 120.785 192.213 121.196 191.864 121.597C191.119 122.482 190.452 123.356 189.85 124.344C188.903 125.878 187.79 127.261 186.665 128.665C185.959 129.553 185.266 130.451 184.57 131.348C182.197 134.401 179.807 137.435 177.36 140.43C177.047 140.814 176.735 141.199 176.424 141.584C173.745 144.892 170.913 148.05 167.969 151.123C167.783 151.317 167.783 151.317 167.593 151.516C165.264 153.94 165.264 153.94 164.062 154.541C163.483 154.48 163.483 154.48 163.086 154.297C163.086 153.975 163.086 153.652 163.086 153.32C161.853 153.791 161.031 154.272 160.065 155.197C159.944 155.312 159.823 155.426 159.698 155.544C159.429 155.799 159.161 156.054 158.893 156.311C158.226 156.95 157.553 157.583 156.88 158.215C156.532 158.543 156.185 158.87 155.839 159.198C154.943 160.046 154.037 160.877 153.113 161.694C152.225 162.489 151.382 163.313 150.554 164.171C150.334 164.399 150.113 164.626 149.887 164.861C149.44 165.325 148.995 165.792 148.553 166.261C147.151 167.7 145.803 168.663 144.006 169.559C142.122 170.541 140.541 172.396 139.648 174.316C139.537 174.686 139.43 175.058 139.328 175.43C138.984 176.563 138.391 177.09 137.478 177.813C136.982 178.207 136.549 178.622 136.108 179.077C135.379 179.82 134.609 180.497 133.82 181.174C133.029 181.885 132.298 182.65 131.563 183.417C131.104 183.838 131.104 183.838 130.615 183.838C130.615 183.999 130.615 184.16 130.615 184.326C130.454 184.326 130.293 184.326 130.127 184.326C130.029 184.553 130.029 184.553 129.929 184.784C129.639 185.303 129.639 185.303 128.906 185.791C128.174 184.876 128.174 184.876 128.174 184.326C127.976 184.242 127.976 184.242 127.774 184.155C127.03 183.746 126.417 183.216 125.778 182.663C125.641 182.546 125.505 182.428 125.364 182.307C125.07 182.055 124.776 181.802 124.483 181.549C124.016 181.146 123.547 180.746 123.078 180.347C121.535 179.026 120.028 177.704 118.635 176.222C118.17 175.75 118.17 175.75 117.524 175.436C116.791 174.947 116.705 174.604 116.47 173.767C115.63 171.254 114.036 170.267 111.816 168.945C110.781 168.293 109.988 167.618 109.131 166.748C108.846 166.471 108.846 166.471 108.555 166.189C107.274 164.938 106.12 163.638 105.002 162.239C104.436 161.553 103.829 160.936 103.19 160.317C102.61 159.74 102.082 159.122 101.548 158.502C101.004 157.878 100.444 157.271 99.884 156.662C98.8715 155.553 97.9169 154.409 96.9744 153.24C96.456 152.613 95.9184 152.012 95.3674 151.413C94.3917 150.343 93.5042 149.223 92.6196 148.078C91.7652 146.98 90.869 145.927 89.9506 144.882C87.8318 142.465 85.9268 139.911 84.074 137.286C83.5694 136.573 83.0454 135.876 82.5195 135.178C81.3402 133.564 80.365 131.831 79.3694 130.101C79.0387 129.53 78.6974 128.966 78.3539 128.403C77.7201 127.35 77.1118 126.284 76.5076 125.214C76.4166 125.053 76.3256 124.893 76.2319 124.727C75.6872 123.758 75.1802 122.779 74.706 121.774C74.4441 121.304 74.1406 120.953 73.7762 120.56C73.2422 119.873 73.2422 119.873 73.2717 119.346C73.5663 118.394 73.9924 117.531 74.4324 116.638C75.2108 115.034 75.9473 113.419 76.6492 111.78C77.9201 108.819 79.3385 105.989 80.9308 103.188C81.2967 102.543 81.6564 101.894 82.015 101.245C86.0343 94.019 90.9785 87.4655 96.612 81.4266C97.1656 80.8358 97.1656 80.8358 97.579 80.2403C97.6851 80.1062 97.7911 79.9721 97.9004 79.834C98.0615 79.834 98.2226 79.834 98.3887 79.834C98.4542 79.689 98.5198 79.544 98.5874 79.3947C98.8782 78.855 99.1704 78.5043 99.6036 78.0745C99.7463 77.9321 99.8889 77.7898 100.036 77.6431C100.263 77.4209 100.263 77.4209 100.494 77.1942C100.649 77.0409 100.805 76.8876 100.964 76.7296C101.88 75.8299 102.807 74.9521 103.788 74.1244C104.118 73.8423 104.438 73.5505 104.753 73.2527C106.542 71.57 108.512 70.1756 110.516 68.7624C111.056 68.379 111.592 67.9903 112.127 67.5993C114.437 65.9214 116.823 64.45 119.315 63.0571C119.85 62.7572 120.382 62.4534 120.914 62.1481C126.435 58.9904 126.435 58.9904 128.418 58.5938C128.418 51.9873 128.418 45.3809 128.418 38.5742C127.209 39.0576 126.001 39.541 124.756 40.0391C123.457 40.5235 123.457 40.5235 122.872 40.7378C117.296 42.7935 112.2 45.6495 107.095 48.6641C106.942 48.7541 106.789 48.8441 106.632 48.9368C105.862 49.391 105.092 49.8469 104.325 50.3065C102.92 51.1432 101.532 51.9068 100.01 52.5176C98.8185 53.0053 97.9489 53.4694 97.3568 54.6656C96.9653 55.6075 96.6681 56.5738 96.3737 57.5496C96.1006 58.3825 95.7251 59.1449 95.3216 59.9213C95.2434 60.074 95.1652 60.2267 95.0845 60.384C94.9085 60.7256 94.7314 61.0667 94.5536 61.4073C94.1801 62.1232 93.8101 62.8409 93.44 63.5586C91.0448 68.1961 91.0448 68.1961 90.1604 69.8271C88.6843 72.556 87.4106 75.3535 86.1711 78.1975C85.3919 79.9785 84.5689 81.7378 83.7402 83.4961C83.59 83.8153 83.4398 84.1345 83.2897 84.4537C82.9809 85.1098 82.6718 85.7658 82.3625 86.4217C81.5986 88.0417 80.8369 89.6627 80.0752 91.2837C79.849 91.7649 79.6226 92.2459 79.3961 92.7268C76.6426 98.5807 74.0747 104.502 71.6138 110.483C70.8201 112.41 70.0116 114.329 69.1833 116.241C69.0823 116.476 68.9812 116.71 68.877 116.952C68.7836 117.166 68.6902 117.381 68.594 117.601C68.5129 117.788 68.4318 117.974 68.3483 118.166C68.1152 118.652 68.1152 118.652 67.6269 119.385C67.7091 120.266 67.9814 120.883 68.4519 121.623C68.5742 121.818 68.6966 122.013 68.8226 122.213C69.0238 122.528 69.0238 122.528 69.2291 122.849C69.5183 123.307 69.8072 123.766 70.096 124.226C70.2498 124.469 70.4036 124.712 70.562 124.963C71.2337 126.033 71.8934 127.11 72.5532 128.187C73.3494 129.487 74.1501 130.784 74.9512 132.08C75.0606 132.258 75.17 132.436 75.2828 132.619C76.6405 134.818 78.1498 136.881 79.69 138.954C80.5406 140.1 81.3832 141.251 82.2143 142.41C82.3979 142.662 82.3979 142.662 82.5852 142.918C83.2386 143.836 83.69 144.648 83.9844 145.752C82.6903 144.823 81.8593 143.685 80.925 142.404C80.3392 141.61 79.7027 140.865 79.0558 140.121C76.6405 137.321 74.5397 134.257 72.4001 131.245C71.547 130.045 70.6812 128.855 69.8174 127.663C69.1388 126.724 68.4654 125.783 67.8015 124.834C67.6721 124.649 67.5427 124.464 67.4094 124.274C67.1664 123.926 66.9242 123.578 66.6829 123.229C66.5162 122.99 66.5162 122.99 66.3462 122.746C66.1848 122.514 66.1848 122.514 66.0201 122.277C65.6804 121.813 65.6804 121.813 65.2465 121.405C64.2232 120.395 64.2232 120.395 64.1833 119.618C64.483 118.06 65.2401 116.604 65.9027 115.173C66.9157 112.932 67.8389 110.674 68.6951 108.368C71.1174 101.882 73.9284 95.5897 76.8454 89.3139C77.3988 88.1227 77.9482 86.9297 78.4969 85.7363C80.4138 81.5691 82.346 77.4096 84.3043 73.2618C85.4404 70.855 86.5615 68.4417 87.6753 66.0246C88.3806 64.5012 89.1025 62.9875 89.8437 61.4815C89.9678 61.2287 89.9678 61.2287 90.0943 60.9708C90.4943 60.1557 90.8964 59.3419 91.3029 58.5302C92.3589 56.3984 93.1184 54.2604 93.7036 51.9557C94.0596 51.1149 94.3391 50.9488 95.15 50.5543C95.3842 50.4369 95.6185 50.3194 95.8598 50.1985C96.1102 50.0786 96.3606 49.9587 96.6186 49.8352C97.1348 49.5776 97.6508 49.3195 98.1665 49.0608C98.4163 48.937 98.6661 48.8132 98.9236 48.6856C99.7654 48.2612 100.579 47.8063 101.395 47.3328C108.279 43.3403 115.35 39.2735 122.945 36.816C123.555 36.6146 124.16 36.4006 124.764 36.1834C125.158 36.0444 125.552 35.9055 125.946 35.7666C126.125 35.7012 126.303 35.6358 126.487 35.5684C127.571 35.1952 128.289 35.1072 129.395 35.4004Z" fill="#131212"/>
<path d="M129.395 35.4004C129.622 35.4585 129.622 35.4585 129.853 35.5177C130.37 35.6532 130.881 35.8002 131.393 35.9497C131.647 36.0201 131.647 36.0201 131.905 36.0918C133.165 36.4583 134.327 36.9584 135.515 37.5129C136.508 37.9693 137.516 38.385 138.525 38.8045C141.053 39.8565 143.533 40.9493 145.962 42.2124C146.575 42.5272 147.193 42.8326 147.812 43.1376C149.962 44.1985 152.088 45.261 154.141 46.5002C154.816 46.8929 155.502 47.2365 156.204 47.5769C162.277 50.5775 162.277 50.5775 163.502 54.0209C164.247 56.058 165.128 58.0104 166.061 59.9671C166.23 60.3239 166.399 60.6808 166.568 61.0377C167.867 63.7719 169.217 66.4794 170.578 69.1834C173.304 74.6012 175.827 80.098 178.279 85.6444C179.221 87.7743 180.17 89.898 181.183 91.9953C183.591 96.9814 185.822 102.045 187.925 107.167C188.605 108.811 189.305 110.447 190.002 112.085C190.494 113.243 190.979 114.403 191.442 115.574C191.877 116.673 192.38 117.729 192.906 118.788C193.147 119.476 193.167 119.701 192.871 120.361C192.551 120.785 192.213 121.196 191.864 121.597C191.119 122.482 190.452 123.356 189.85 124.344C188.903 125.878 187.79 127.261 186.665 128.665C185.959 129.553 185.266 130.451 184.57 131.348C182.197 134.401 179.807 137.435 177.36 140.43C177.047 140.814 176.735 141.199 176.424 141.584C173.745 144.892 170.913 148.05 167.969 151.123C167.783 151.317 167.783 151.317 167.593 151.516C165.264 153.94 165.264 153.94 164.062 154.541C163.483 154.48 163.483 154.48 163.086 154.297C163.086 153.975 163.086 153.652 163.086 153.32C161.853 153.791 161.031 154.272 160.065 155.197C159.944 155.312 159.823 155.426 159.698 155.544C159.429 155.799 159.161 156.054 158.893 156.311C158.226 156.95 157.553 157.583 156.88 158.215C156.532 158.543 156.185 158.87 155.839 159.198C154.943 160.046 154.037 160.877 153.113 161.694C152.225 162.489 151.382 163.313 150.554 164.171C150.334 164.399 150.113 164.626 149.887 164.861C149.44 165.325 148.995 165.792 148.553 166.261C147.151 167.7 145.803 168.663 144.006 169.559C142.122 170.541 140.541 172.396 139.648 174.316C139.537 174.686 139.43 175.058 139.328 175.43C138.984 176.563 138.391 177.09 137.478 177.813C136.982 178.207 136.549 178.622 136.108 179.077C135.379 179.82 134.609 180.497 133.82 181.174C133.029 181.885 132.298 182.65 131.563 183.417C131.104 183.838 131.104 183.838 130.615 183.838C130.615 183.999 130.615 184.16 130.615 184.326C130.454 184.326 130.293 184.326 130.127 184.326C130.029 184.553 130.029 184.553 129.929 184.784C129.639 185.303 129.639 185.303 128.906 185.791C128.174 184.876 128.174 184.876 128.174 184.326C127.976 184.242 127.976 184.242 127.774 184.155C127.03 183.746 126.417 183.216 125.778 182.663C125.641 182.546 125.505 182.428 125.364 182.307C125.07 182.055 124.776 181.802 124.483 181.549C124.016 181.146 123.547 180.746 123.078 180.347C121.535 179.026 120.028 177.704 118.635 176.222C118.17 175.75 118.17 175.75 117.524 175.436C116.791 174.947 116.705 174.604 116.47 173.767C115.63 171.254 114.036 170.267 111.816 168.945C110.781 168.293 109.988 167.618 109.131 166.748C108.846 166.471 108.846 166.471 108.555 166.189C107.274 164.938 106.12 163.638 105.002 162.239C104.436 161.553 103.829 160.936 103.19 160.317C102.61 159.74 102.082 159.122 101.548 158.502C101.004 157.878 100.444 157.271 99.884 156.662C98.8715 155.553 97.9169 154.409 96.9744 153.24C96.456 152.613 95.9184 152.012 95.3674 151.413C94.3917 150.343 93.5042 149.223 92.6196 148.078C91.7652 146.98 90.869 145.927 89.9506 144.882C87.8318 142.465 85.9268 139.911 84.074 137.286C83.5694 136.573 83.0454 135.876 82.5195 135.178C81.3402 133.564 80.365 131.831 79.3694 130.101C79.0387 129.53 78.6974 128.966 78.3539 128.403C77.7201 127.35 77.1118 126.284 76.5076 125.214C76.4166 125.053 76.3256 124.893 76.2319 124.727C75.6872 123.758 75.1802 122.779 74.706 121.774C74.4441 121.304 74.1406 120.953 73.7762 120.56C73.2422 119.873 73.2422 119.873 73.2717 119.346C73.5663 118.394 73.9924 117.531 74.4324 116.638C75.2108 115.034 75.9473 113.419 76.6492 111.78C77.9201 108.819 79.3385 105.989 80.9308 103.188C81.2967 102.543 81.6564 101.894 82.015 101.245C86.0343 94.019 90.9785 87.4655 96.612 81.4266C97.1656 80.8358 97.1656 80.8358 97.579 80.2403C97.6851 80.1062 97.7911 79.9721 97.9004 79.834C98.0615 79.834 98.2226 79.834 98.3887 79.834C98.4542 79.689 98.5198 79.544 98.5874 79.3947C98.8782 78.855 99.1704 78.5043 99.6036 78.0745C99.7463 77.9321 99.8889 77.7898 100.036 77.6431C100.263 77.4209 100.263 77.4209 100.494 77.1942C100.649 77.0409 100.805 76.8876 100.964 76.7296C101.88 75.8299 102.807 74.9521 103.788 74.1244C104.118 73.8423 104.438 73.5505 104.753 73.2527C106.542 71.57 108.512 70.1756 110.516 68.7624C111.056 68.379 111.592 67.9903 112.127 67.5993C114.437 65.9214 116.823 64.45 119.315 63.0571C119.85 62.7572 120.382 62.4534 120.914 62.1481C126.435 58.9904 126.435 58.9904 128.418 58.5938C128.418 51.9873 128.418 45.3809 128.418 38.5742C127.209 39.0576 126.001 39.541 124.756 40.0391C123.457 40.5235 123.457 40.5235 122.872 40.7378C117.296 42.7935 112.2 45.6495 107.095 48.6641C106.942 48.7541 106.789 48.8441 106.632 48.9368C105.862 49.391 105.092 49.8469 104.325 50.3065C102.92 51.1432 101.532 51.9068 100.01 52.5176C98.8185 53.0053 97.9489 53.4694 97.3568 54.6656C96.9653 55.6075 96.6681 56.5738 96.3737 57.5496C96.1006 58.3825 95.7251 59.1449 95.3216 59.9213C95.2434 60.074 95.1652 60.2267 95.0845 60.384C94.9085 60.7256 94.7314 61.0667 94.5536 61.4073C94.1801 62.1232 93.8101 62.8409 93.44 63.5586C91.0448 68.1961 91.0448 68.1961 90.1604 69.8271C88.6843 72.556 87.4106 75.3535 86.1711 78.1975C85.3919 79.9785 84.5689 81.7378 83.7402 83.4961C83.59 83.8153 83.4398 84.1345 83.2897 84.4537C82.9809 85.1098 82.6718 85.7658 82.3625 86.4217C81.5986 88.0417 80.8369 89.6627 80.0752 91.2837C79.849 91.7649 79.6226 92.2459 79.3961 92.7268C76.6426 98.5807 74.0747 104.502 71.6138 110.483C70.8201 112.41 70.0116 114.329 69.1833 116.241C69.0823 116.476 68.9812 116.71 68.877 116.952C68.7836 117.166 68.6902 117.381 68.594 117.601C68.5129 117.788 68.4318 117.974 68.3483 118.166C68.1152 118.652 68.1152 118.652 67.6269 119.385C67.7091 120.266 67.9814 120.883 68.4519 121.623C68.5742 121.818 68.6966 122.013 68.8226 122.213C69.0238 122.528 69.0238 122.528 69.2291 122.849C69.5183 123.307 69.8072 123.766 70.096 124.226C70.2498 124.469 70.4036 124.712 70.562 124.963C71.2337 126.033 71.8934 127.11 72.5532 128.187C73.3494 129.487 74.1501 130.784 74.9512 132.08C75.0606 132.258 75.17 132.436 75.2828 132.619C76.6405 134.818 78.1498 136.881 79.69 138.954C80.5406 140.1 81.3832 141.251 82.2143 142.41C82.3979 142.662 82.3979 142.662 82.5852 142.918C83.2386 143.836 83.69 144.648 83.9844 145.752C82.6903 144.823 81.8593 143.685 80.925 142.404C80.3392 141.61 79.7027 140.865 79.0558 140.121C76.6405 137.321 74.5397 134.257 72.4001 131.245C71.547 130.045 70.6812 128.855 69.8174 127.663C69.1388 126.724 68.4654 125.783 67.8015 124.834C67.6721 124.649 67.5427 124.464 67.4094 124.274C67.1664 123.926 66.9242 123.578 66.6829 123.229C66.5162 122.99 66.5162 122.99 66.3462 122.746C66.1848 122.514 66.1848 122.514 66.0201 122.277C65.6804 121.813 65.6804 121.813 65.2465 121.405C64.2232 120.395 64.2232 120.395 64.1833 119.618C64.483 118.06 65.2401 116.604 65.9027 115.173C66.9157 112.932 67.8389 110.674 68.6951 108.368C71.1174 101.882 73.9284 95.5897 76.8454 89.3139C77.3988 88.1227 77.9482 86.9297 78.4969 85.7363C80.4138 81.5691 82.346 77.4096 84.3043 73.2618C85.4404 70.855 86.5615 68.4417 87.6753 66.0246C88.3806 64.5012 89.1025 62.9875 89.8437 61.4815C89.9678 61.2287 89.9678 61.2287 90.0943 60.9708C90.4943 60.1557 90.8964 59.3419 91.3029 58.5302C92.3589 56.3984 93.1184 54.2604 93.7036 51.9557C94.0596 51.1149 94.3391 50.9488 95.15 50.5543C95.3842 50.4369 95.6185 50.3194 95.8598 50.1985C96.1102 50.0786 96.3606 49.9587 96.6186 49.8352C97.1348 49.5776 97.6508 49.3195 98.1665 49.0608C98.4163 48.937 98.6661 48.8132 98.9236 48.6856C99.7654 48.2612 100.579 47.8063 101.395 47.3328C108.279 43.3403 115.35 39.2735 122.945 36.816C123.555 36.6146 124.16 36.4006 124.764 36.1834C125.158 36.0444 125.552 35.9055 125.946 35.7666C126.125 35.7012 126.303 35.6358 126.487 35.5684C127.571 35.1952 128.289 35.1072 129.395 35.4004ZM126.907 62.1796C125.555 63.0079 124.187 63.799 122.801 64.5679C118.231 67.1068 113.734 69.7917 109.739 73.181C109.207 73.6277 108.657 74.0514 108.109 74.4782C105.775 76.3574 103.649 78.4528 101.525 80.5612C101.279 80.8049 101.033 81.0481 100.787 81.291C99.1403 82.9169 97.6352 84.6149 96.1914 86.4258C95.9601 86.7003 95.7274 86.9737 95.4924 87.245C90.0435 93.5455 85.4049 100.686 81.771 108.176C81.4734 108.785 81.1674 109.39 80.8612 109.995C80.5341 110.643 80.212 111.295 79.8899 111.946C79.6662 112.395 79.4408 112.844 79.2144 113.292C78.8017 114.111 78.3944 114.932 77.9877 115.753C77.8535 116.017 77.7194 116.28 77.5812 116.552C77.3967 116.928 77.3967 116.928 77.2085 117.311C77.0969 117.535 76.9853 117.758 76.8704 117.988C76.6087 118.815 76.668 119.286 76.9043 120.117C77.2419 120.723 77.2419 120.723 77.6834 121.283C78.5443 122.457 79.3091 123.664 80.0629 124.908C82.6759 129.167 85.4172 133.32 88.5127 137.244C88.9619 137.816 89.4027 138.394 89.8433 138.973C91.03 140.529 92.2534 142.051 93.5059 143.555C93.6094 143.679 93.7129 143.804 93.8195 143.932C95.1431 145.523 96.4968 147.075 97.9057 148.591C98.6126 149.356 99.2796 150.142 99.9298 150.955C101.115 152.429 102.41 153.792 103.706 155.168C104.408 155.913 105.087 156.676 105.755 157.452C106.482 158.278 107.233 159.083 107.983 159.889C108.527 160.475 109.068 161.062 109.597 161.661C111.209 163.484 112.925 165.191 114.655 166.901C117.993 170.201 117.993 170.201 119.287 171.723C119.778 172.292 120.311 172.815 120.85 173.34C121.559 174.031 122.23 174.738 122.876 175.488C123.797 176.55 124.778 177.54 125.778 178.528C125.949 178.697 126.119 178.866 126.295 179.041C126.618 179.362 126.942 179.684 127.266 180.005C127.733 180.467 128.198 180.931 128.662 181.397C130.829 180.502 132.551 177.978 133.971 176.195C134.725 175.294 135.555 174.484 136.394 173.662C137.027 173.032 137.609 172.372 138.19 171.695C139.756 169.9 141.387 168.161 143.086 166.492C143.526 166.045 143.938 165.585 144.347 165.109C145.257 164.062 146.201 163.054 147.156 162.048C148.297 160.843 149.43 159.632 150.543 158.402C151.528 157.318 152.552 156.285 153.595 155.258C154.792 154.078 155.886 152.864 156.93 151.544C157.542 150.792 158.186 150.079 158.844 149.368C159.017 149.181 159.017 149.181 159.194 148.989C159.307 148.868 159.419 148.747 159.534 148.622C163.118 144.747 166.325 140.515 169.529 136.326C169.929 135.805 170.332 135.288 170.737 134.772C172.228 132.868 173.585 130.906 174.896 128.876C175.098 128.566 175.3 128.256 175.502 127.945C176.787 125.969 178.058 123.982 179.305 121.981C179.411 121.811 179.517 121.642 179.626 121.467C179.769 121.237 179.769 121.237 179.914 121.002C180.176 120.605 180.176 120.605 180.634 120.072C180.967 119.637 180.967 119.637 180.842 119.08C180.492 117.759 179.851 116.546 179.276 115.311C179.149 115.034 179.023 114.757 178.893 114.472C178.203 112.981 177.464 111.561 176.599 110.164C176.128 109.385 175.733 108.577 175.339 107.758C171.997 100.976 167.712 94.5956 162.911 88.7624C162.467 88.2192 162.038 87.6651 161.606 87.1124C160.751 86.0409 159.836 85.0328 158.9 84.0324C158.225 83.3089 157.595 82.5642 156.982 81.7871C156.489 81.2325 156.489 81.2325 156.006 80.8106C155.845 80.8106 155.684 80.8106 155.518 80.8106C155.452 80.6649 155.387 80.5192 155.32 80.3691C155.025 79.8267 154.742 79.5022 154.292 79.0854C154.145 78.948 153.997 78.8107 153.845 78.6691C153.687 78.5248 153.529 78.3805 153.366 78.2318C153.203 78.0814 153.04 77.9309 152.871 77.7759C147.93 73.2497 142.573 69.3797 136.788 66.0007C135.963 65.5169 135.143 65.0232 134.323 64.5294C134.033 64.3558 133.743 64.1823 133.453 64.0087C132.816 63.6264 132.18 63.2404 131.546 62.8529C131.378 62.7505 131.209 62.6481 131.036 62.5426C130.711 62.3455 130.388 62.1475 130.065 61.9486C128.635 61.0817 128.253 61.3431 126.907 62.1796Z" fill="#FBFBFB"/>
<path d="M158.245 94.983C158.696 95.217 159.149 95.4455 159.603 95.6736C159.886 95.8193 160.17 95.965 160.461 96.1151C160.709 96.2419 160.957 96.3688 161.213 96.4994C162.301 97.2074 162.755 97.8075 163.08 99.0725C163.138 99.4389 163.19 99.8062 163.239 100.174C163.267 100.374 163.296 100.575 163.326 100.781C164.808 111.626 164.808 111.626 163.33 114.502C162.006 115.76 160.834 115.825 159.069 115.81C157.647 115.667 156.504 115.098 155.243 114.456C154.754 114.219 154.265 113.981 153.776 113.744C153.539 113.626 153.301 113.508 153.057 113.387C139.363 106.671 126.256 105.319 111.72 110.241C108.908 111.221 106.229 112.389 103.584 113.756C98.5242 116.339 98.5242 116.339 95.9473 115.723C94.6119 115.141 93.8601 114.531 93.2381 113.194C92.4059 110.759 93.1134 107.433 93.2768 104.889C93.3076 104.398 93.3364 103.907 93.3634 103.416C93.4028 102.699 93.448 101.983 93.4944 101.267C93.5054 101.049 93.5164 100.83 93.5277 100.606C93.6215 99.2843 93.8437 98.4577 94.7266 97.4121C94.9683 97.251 95.21 97.0898 95.459 96.9238C95.8713 99.2778 96.0019 101.602 96.0693 103.989C95.9841 108.462 95.9841 108.462 97.4121 112.549C99.0933 112.437 100.457 111.766 101.974 111.069C102.522 110.823 103.07 110.577 103.618 110.332C103.889 110.211 104.16 110.09 104.44 109.965C108.157 108.327 111.981 106.821 115.9 105.74C117.74 105.231 119.277 104.634 120.85 103.516C121.015 103.404 121.18 103.292 121.35 103.177C121.906 102.794 122.44 102.425 122.895 101.924C123.388 101.474 123.886 101.294 124.512 101.074C124.235 101.142 123.958 101.21 123.672 101.279C123.301 101.369 122.93 101.458 122.559 101.547C122.286 101.614 122.286 101.614 122.008 101.682C120.81 101.969 119.633 102.163 118.408 102.295C118.328 102.537 118.247 102.778 118.164 103.027C117.496 103.23 116.863 103.383 116.18 103.516C115.981 103.557 115.781 103.599 115.576 103.642C114.974 103.766 114.372 103.886 113.77 104.004C113.464 104.064 113.158 104.124 112.844 104.186C112.265 104.3 111.686 104.413 111.107 104.526C109.614 104.829 108.136 105.207 106.66 105.582C106.449 105.634 106.238 105.686 106.021 105.74C105.738 105.811 105.738 105.811 105.448 105.884C104.98 105.957 104.98 105.957 104.492 105.713C106.009 104.714 107.671 104.22 109.388 103.669C112.309 102.727 115.288 101.636 117.929 100.042C119.517 99.0845 121.15 98.6392 122.94 98.1903C123.233 98.1143 123.526 98.0383 123.827 97.96C124.543 97.7747 125.259 97.5921 125.977 97.4121C121.493 97.3061 117.38 98.0719 113.037 99.1211C112.658 99.212 112.658 99.212 112.271 99.3048C108.476 100.199 108.476 100.199 104.778 101.424C104.179 101.58 103.849 101.521 103.271 101.318C105.717 100.264 108.176 99.3349 110.708 98.5084C112.641 97.876 114.556 97.208 116.411 96.3678C118.56 95.4047 120.749 94.9376 123.047 94.4824C123.499 94.3918 123.951 94.3012 124.403 94.2106C124.765 94.1384 125.127 94.0662 125.488 93.9941C121.383 93.9289 117.838 94.0495 113.89 95.2454C112.784 95.5225 111.712 95.5795 110.577 95.6335C109.594 95.7294 108.82 96.0649 107.91 96.4355C107.668 96.355 107.427 96.2744 107.178 96.1914C108.81 95.278 110.405 94.8238 112.228 94.4977C113.78 94.2187 115.209 93.8757 116.669 93.277C119.887 91.9701 123.473 91.1452 126.953 91.0645C122.677 90.8699 122.677 90.8699 118.622 91.9199C117.332 92.5077 115.912 92.4798 114.517 92.5598C113.961 92.5956 113.404 92.6319 112.847 92.6685C112.586 92.6853 112.326 92.7021 112.057 92.7193C111.157 92.7862 110.269 92.8926 109.375 93.0176C110.982 91.4106 114.07 91.2969 116.234 90.97C117.213 90.8238 117.213 90.8238 118.164 90.5762C118.245 90.415 118.325 90.2539 118.408 90.0879C118.65 90.0073 118.892 89.9268 119.141 89.8438C119.41 89.5511 119.41 89.5511 119.685 89.2525C120.491 88.5021 121.083 88.3302 122.147 88.0737C122.453 87.9969 122.759 87.9202 123.075 87.841C134.996 85.3969 147.768 89.5199 158.245 94.983Z" fill="#FBFCFC"/>
<path d="M157.227 118.896C157.388 118.896 157.549 118.896 157.715 118.896C157.765 120.335 157.573 121.669 157.322 123.083C157.26 123.439 157.26 123.439 157.198 123.801C157.11 124.303 157.023 124.804 156.934 125.305C156.801 126.057 156.671 126.81 156.542 127.563C154.973 136.586 151.448 142.318 145.752 149.414C145.624 149.574 145.496 149.735 145.364 149.9C143.907 151.718 142.443 153.519 140.862 155.232C140.551 155.575 140.247 155.925 139.953 156.283C137.992 158.672 135.171 160.429 132.08 160.889C128.053 161.164 128.053 161.164 126.465 159.912C125.534 159.098 125.158 158.473 125.061 157.257C125.13 156.015 125.572 155.355 126.441 154.491C128.342 152.863 130.603 151.782 132.812 150.635C132.049 150.38 131.4 150.31 130.599 150.241C130.156 150.199 130.156 150.199 129.705 150.156C129.088 150.1 128.47 150.045 127.853 149.992C125.497 149.764 123.364 149.368 121.582 147.705C121.663 147.463 121.743 147.222 121.826 146.973C122.648 146.562 123.581 146.654 124.487 146.624C124.942 146.606 125.396 146.587 125.851 146.569C126.562 146.542 127.274 146.515 127.986 146.491C131.269 146.374 134.456 146.066 137.695 145.508C137.421 145.374 137.421 145.374 137.142 145.238C136.707 145.026 136.271 144.814 135.836 144.602C133.697 143.787 131.54 143.713 129.272 143.662C127.349 143.611 125.447 143.538 123.535 143.311C123.535 143.149 123.535 142.988 123.535 142.822C124.108 142.435 124.681 142.077 125.275 141.724C129.583 139.09 132.395 136.929 134.277 132.08C134.021 132.201 133.766 132.321 133.502 132.445C133.165 132.603 132.829 132.761 132.492 132.919C132.324 132.999 132.155 133.078 131.981 133.16C130.3 133.948 128.765 134.405 126.919 133.886C126.25 133.608 125.758 133.327 125.244 132.813C125.325 131.893 125.67 131.065 126.001 130.209C126.261 129.534 126.508 128.854 126.755 128.174C126.839 127.942 126.923 127.711 127.009 127.472C127.102 127.215 127.102 127.215 127.197 126.953C129.53 126.75 131.284 127.784 133.057 129.211C133.545 129.639 133.545 129.639 133.896 130.02C134.694 130.857 135.372 130.951 136.475 130.981C142.558 130.72 148.493 127.929 153.076 124.023C153.318 123.819 153.318 123.819 153.565 123.61C154.697 122.564 155.543 121.295 156.403 120.025C156.666 119.641 156.945 119.268 157.227 118.896Z" fill="#FCFCFC"/>
<path d="M182.373 142.334C183.373 143.283 183.823 143.747 183.862 145.16C183.86 145.494 183.857 145.829 183.853 146.164C183.852 146.335 183.851 146.507 183.85 146.683C183.847 147.105 183.843 147.527 183.838 147.949C183.978 147.921 184.118 147.893 184.262 147.863C189.148 147.344 194.875 152.812 198.672 155.508C199.93 156.4 201.206 157.223 202.545 157.99C203.894 158.769 205.227 159.566 206.543 160.4C206.462 160.562 206.382 160.723 206.299 160.889C205.721 161.015 205.721 161.015 204.946 161.113C203.166 161.362 201.415 161.705 199.658 162.077C199.146 162.185 198.633 162.29 198.121 162.395C195.749 162.89 193.461 163.546 191.162 164.307C190.949 164.376 190.736 164.446 190.517 164.518C190.167 164.634 189.818 164.751 189.47 164.869C189.111 164.99 188.751 165.109 188.39 165.227C182.975 166.996 177.698 169.219 172.644 171.851C172.009 172.175 171.37 172.489 170.73 172.803C165.771 175.239 161.228 177.837 156.982 181.396C156.821 181.316 156.66 181.235 156.494 181.152C156.627 180.981 156.759 180.81 156.896 180.634C157.91 179.288 158.681 178.115 159.18 176.514C160.182 173.545 161.556 171.572 163.818 169.434C163.683 169.539 163.548 169.645 163.408 169.754C163.231 169.89 163.055 170.026 162.872 170.166C162.697 170.302 162.521 170.438 162.34 170.578C161.865 170.898 161.865 170.898 161.377 170.898C161.707 170.175 162.082 169.627 162.613 169.037C162.766 168.865 162.919 168.693 163.077 168.516C163.405 168.155 163.734 167.795 164.063 167.437C166.608 164.653 168.938 161.715 171.093 158.623C171.592 157.909 172.1 157.202 172.607 156.494C172.812 156.207 173.017 155.92 173.222 155.633C173.614 155.084 174.008 154.537 174.404 153.991C175.808 152.051 177.135 150.068 178.453 148.069C179.336 146.739 180.251 145.483 181.277 144.259C181.757 143.651 182.073 143.046 182.373 142.334Z" fill="#FCFCFC"/>
<path d="M72.7539 142.09C73.6924 142.282 73.6924 142.282 74.0347 142.746C74.1307 142.932 74.2267 143.119 74.3256 143.311C75.0323 144.568 75.8645 145.673 76.7517 146.805C78.078 148.507 79.2286 150.237 80.3223 152.1C82.6822 156.033 85.5551 159.616 88.4943 163.126C89.2852 164.077 90.0531 165.046 90.8203 166.016C89.9669 166.016 89.8943 165.921 89.2992 165.36C89.1453 165.216 88.9914 165.073 88.8328 164.924C88.6679 164.766 88.503 164.607 88.3331 164.444C88.1618 164.281 87.9904 164.119 87.8139 163.951C85.406 161.64 83.1164 159.204 80.9479 156.668C80.5317 156.193 80.5317 156.193 79.834 155.64C79.0997 155.028 78.5176 154.387 77.8999 153.663C77.2618 152.925 76.6034 152.207 75.943 151.489C75.8216 151.357 75.7002 151.225 75.5752 151.089C75.286 150.775 74.9965 150.461 74.707 150.146C74.5651 150.334 74.4232 150.521 74.2769 150.714C73.0026 152.237 71.139 153.055 69.4036 153.96C67.8511 154.778 66.357 155.684 64.8578 156.595C63.2367 157.576 61.5924 158.507 59.9295 159.416C59.0882 159.835 59.0882 159.835 58.3496 160.4C58.6067 160.451 58.8637 160.502 59.1285 160.555C62.1408 161.176 65.0258 162.056 67.9321 163.055C68.1656 163.135 68.399 163.215 68.6395 163.297C72.8508 164.743 76.8437 166.44 80.8105 168.457C81.3211 168.711 81.8316 168.965 82.3421 169.219C85.3652 170.742 88.2529 172.432 91.0645 174.316C91.2451 174.437 91.4257 174.558 91.6117 174.683C94.0955 176.358 96.3995 178.18 98.6328 180.176C97.6224 180.176 97.0513 179.651 96.2524 179.092C94.5465 177.927 92.8025 176.852 91.0232 175.804C90.4536 175.464 89.8914 175.113 89.3279 174.764C81.397 169.896 71.8609 165.433 62.7689 163.27C62.0014 163.083 61.2656 162.847 60.5164 162.598C57.2962 161.588 53.8731 161.115 50.5371 160.645C50.5371 160.483 50.5371 160.322 50.5371 160.156C50.9977 159.846 50.9977 159.846 51.6815 159.47C54.9423 157.617 58.1096 155.615 61.2183 153.519C62.7822 152.466 64.3557 151.442 65.979 150.482C66.1388 150.387 66.2986 150.292 66.4632 150.194C69.7425 148.288 69.7425 148.288 71.6705 148.376C71.9226 148.385 72.1747 148.394 72.4344 148.403C72.7134 148.42 72.7134 148.42 72.998 148.438C72.9381 148.09 72.9381 148.09 72.8769 147.735C72.7135 146.59 72.7272 145.456 72.7386 144.302C72.7397 144.089 72.7409 143.875 72.742 143.655C72.7448 143.133 72.7492 142.612 72.7539 142.09Z" fill="#F7F8F7"/>
<path d="M145.996 173.096C146.382 173.481 146.271 173.868 146.271 174.404C146.272 174.634 146.273 174.864 146.273 175.101C146.273 175.356 146.272 175.61 146.272 175.873C146.272 176.14 146.273 176.406 146.273 176.681C146.274 177.573 146.273 178.465 146.273 179.357C146.273 179.981 146.273 180.606 146.273 181.23C146.274 182.548 146.273 183.866 146.272 185.184C146.271 186.519 146.271 187.855 146.272 189.19C146.283 201.792 146.283 201.792 146.147 207.37C146.143 207.548 146.139 207.725 146.136 207.908C146.125 208.397 146.111 208.885 146.096 209.373C146.089 209.637 146.081 209.902 146.073 210.174C145.984 211.052 145.772 211.805 145.508 212.646C144.783 212.646 144.058 212.646 143.311 212.646C143.095 211.719 143.035 210.859 143.032 209.908C143.031 209.602 143.029 209.297 143.028 208.982C143.028 208.645 143.027 208.308 143.027 207.971C143.026 207.615 143.025 207.259 143.023 206.903C143.02 205.937 143.019 204.971 143.017 204.005C143.017 203.401 143.016 202.797 143.015 202.193C143.011 200.303 143.009 198.414 143.008 196.524C143.007 194.344 143.003 192.163 142.996 189.983C142.99 188.297 142.988 186.61 142.988 184.924C142.987 183.917 142.986 182.91 142.981 181.903C142.977 180.956 142.977 180.01 142.979 179.063C142.979 178.716 142.978 178.369 142.976 178.022C142.973 177.547 142.975 177.072 142.977 176.598C142.976 176.332 142.976 176.067 142.976 175.794C143.108 174.711 143.499 173.894 144.257 173.111C144.935 172.772 145.287 172.866 145.996 173.096Z" fill="#F9FAFA"/>
<path d="M111.282 172.745C112.303 172.885 112.625 173.304 113.281 174.072C113.362 174.153 113.442 174.233 113.525 174.316C113.774 176.177 113.805 178.053 113.801 179.928C113.802 180.178 113.802 180.429 113.802 180.687C113.803 181.508 113.803 182.329 113.802 183.149C113.802 183.73 113.802 184.31 113.803 184.89C113.803 186.107 113.803 187.323 113.801 188.539C113.8 190.075 113.801 191.612 113.802 193.148C113.811 203.946 113.811 203.946 113.676 208.59C113.669 208.882 113.661 209.175 113.654 209.477C113.644 209.734 113.635 209.992 113.625 210.258C113.618 210.475 113.61 210.692 113.603 210.915C113.525 211.426 113.525 211.426 113.037 211.914C112.381 211.98 111.745 211.935 111.084 211.914C110.599 210.095 110.523 208.4 110.522 206.522C110.519 206.052 110.519 206.052 110.515 205.572C110.511 204.894 110.508 204.216 110.506 203.538C110.503 202.462 110.497 201.386 110.491 200.31C110.48 198.605 110.473 196.9 110.466 195.195C110.453 192.149 110.438 189.104 110.42 186.059C110.414 184.993 110.41 183.927 110.406 182.861C110.404 182.355 110.402 181.85 110.399 181.344C110.396 180.732 110.393 180.121 110.392 179.509C110.385 178.334 110.37 177.166 110.277 175.995C110.258 175.743 110.258 175.743 110.237 175.487C110.198 175.014 110.155 174.542 110.112 174.07C110.11 173.829 110.109 173.588 110.107 173.34C110.596 172.852 110.596 172.852 111.282 172.745Z" fill="#F6F7F7"/>
<path d="M123.413 93.7347C123.757 93.736 124.101 93.7371 124.445 93.7381C125.281 93.7409 126.117 93.7449 126.953 93.75C126.953 93.8306 126.953 93.9111 126.953 93.9941C126.776 94.0234 126.6 94.0527 126.418 94.0829C120.236 95.1071 120.236 95.1071 114.469 97.4619C113.728 97.7782 113.1 97.7225 112.305 97.6562C112.305 97.0117 112.305 96.3672 112.305 95.7031C111.499 95.7031 110.693 95.7031 109.863 95.7031C109.863 95.6225 109.863 95.542 109.863 95.459C110.039 95.4555 110.214 95.452 110.394 95.4485C112.361 95.3579 114.127 94.9789 116.015 94.4374C118.488 93.7348 120.86 93.7188 123.413 93.7347Z" fill="#202121"/>
<path d="M127.197 90.8203C127.117 90.9815 127.036 91.1426 126.953 91.3086C126.392 91.4018 125.826 91.4676 125.259 91.5222C122.321 91.844 119.407 92.3676 116.693 93.5688C116.035 93.8163 115.441 93.7823 114.746 93.75C114.471 93.8652 114.471 93.8652 114.191 93.9827C113.436 94.2724 112.789 94.3378 111.984 94.3909C111.723 94.4091 111.462 94.4274 111.194 94.4462C110.898 94.4641 110.898 94.4641 110.596 94.4824C110.596 94.3213 110.596 94.1602 110.596 93.9941C109.871 93.8733 109.871 93.8733 109.131 93.75C109.131 93.5889 109.131 93.4277 109.131 93.2617C111.205 92.4514 113.169 92.353 115.376 92.2432C116.904 92.151 118.013 91.9723 119.385 91.3086C121.967 90.7485 124.571 90.7624 127.197 90.8203Z" fill="#0B090B"/>
<path d="M125 87.8906C123.789 88.4457 122.637 88.815 121.338 89.1113C121.338 89.353 121.338 89.5947 121.338 89.8437C120.728 90.4999 120.728 90.4999 120.117 91.0644C120.439 91.145 120.762 91.2256 121.094 91.3086C120.846 91.353 120.846 91.353 120.594 91.3982C120.376 91.4391 120.158 91.4801 119.934 91.5222C119.611 91.5817 119.611 91.5817 119.282 91.6424C118.665 91.7643 118.665 91.7643 118.213 92.0415C117.547 92.3437 116.99 92.383 116.261 92.4311C115.849 92.4601 115.849 92.4601 115.429 92.4897C115.143 92.5078 114.857 92.5259 114.563 92.5445C114 92.5826 113.436 92.621 112.873 92.6599C112.608 92.6782 112.342 92.6965 112.069 92.7154C111.165 92.7862 110.273 92.8927 109.375 93.0176C110.982 91.4106 114.07 91.2969 116.234 90.97C117.213 90.8238 117.213 90.8238 118.164 90.5762C118.245 90.415 118.325 90.2539 118.408 90.0879C118.65 90.0073 118.892 89.9267 119.141 89.8437C119.319 89.6492 119.498 89.4548 119.681 89.2544C120.47 88.522 121.187 88.282 122.208 88.0432C122.369 88.0001 122.53 87.957 122.695 87.9125C123.534 87.702 124.181 87.5697 125 87.8906Z" fill="#ADA9A8"/>
<path d="M86.1817 171.387C90.7392 173.718 94.7704 176.843 98.6328 180.176C97.6225 180.176 97.0513 179.651 96.2525 179.092C94.9912 178.231 93.7208 177.4 92.4073 176.62C92.2586 176.532 92.1099 176.444 91.9566 176.353C91.6535 176.174 91.3503 175.994 91.0468 175.815C90.2164 175.324 89.3894 174.828 88.562 174.332C88.4077 174.239 88.2533 174.147 88.0943 174.052C87.4468 173.664 86.8098 173.27 86.1817 172.852C86.1359 172.089 86.1359 172.089 86.1817 171.387Z" fill="#EAEAE9"/>
<path d="M127.197 90.8203C127.117 90.9815 127.036 91.1426 126.953 91.3086C126.392 91.4018 125.826 91.4676 125.259 91.5222C122.335 91.8424 119.338 92.3248 116.662 93.5946C116.211 93.75 116.211 93.75 115.479 93.5059C115.64 93.5059 115.801 93.5059 115.967 93.5059C116.047 93.2642 116.128 93.0225 116.211 92.7734C115.244 92.6929 114.277 92.6123 113.281 92.5293C113.281 92.4487 113.281 92.3682 113.281 92.2852C113.579 92.276 113.876 92.2669 114.182 92.2575C114.579 92.2415 114.975 92.2252 115.372 92.2089C115.567 92.2034 115.762 92.1979 115.963 92.1922C117.264 92.1338 118.188 91.8572 119.385 91.3086C121.967 90.7485 124.571 90.7624 127.197 90.8203Z" fill="#555759"/>
<path d="M117.188 93.0176C117.349 93.0981 117.51 93.1787 117.676 93.2617C117.676 93.3423 117.676 93.4229 117.676 93.5059C118.32 93.5864 118.965 93.667 119.629 93.75C119.629 93.8306 119.629 93.9111 119.629 93.9941C119.439 94.0181 119.25 94.042 119.055 94.0666C117.574 94.2716 116.175 94.5444 114.746 94.986C113.338 95.4124 112.041 95.5639 110.577 95.6335C109.594 95.7294 108.82 96.0649 107.91 96.4355C107.668 96.355 107.427 96.2744 107.178 96.1914C109.04 95.1489 110.889 94.7254 112.964 94.3509C114.316 94.1007 115.531 93.7697 116.777 93.173C116.913 93.1217 117.048 93.0704 117.188 93.0176Z" fill="#DADAD9"/>
<path d="M125 87.8906C123.789 88.4457 122.637 88.815 121.338 89.1113C121.338 89.353 121.338 89.5947 121.338 89.8437C120.728 90.4999 120.728 90.4999 120.117 91.0644C120.439 91.145 120.762 91.2256 121.094 91.3086C119.853 91.5153 118.689 91.5748 117.432 91.5527C117.593 91.4722 117.754 91.3916 117.92 91.3086C117.92 91.1474 117.92 90.9863 117.92 90.8203C118.321 90.4878 118.729 90.1637 119.141 89.8437C119.318 89.6433 119.496 89.4428 119.678 89.2362C120.471 88.5249 121.196 88.2798 122.208 88.0432C122.369 88.0001 122.53 87.957 122.695 87.9125C123.534 87.702 124.181 87.5697 125 87.8906Z" fill="#D4CECA"/>
<path d="M124.634 97.1527C124.858 97.1538 125.082 97.1549 125.313 97.1561C125.86 97.1589 126.406 97.1629 126.953 97.168C124.955 98.2056 122.612 98.8739 120.374 98.4526C119.813 98.381 119.437 98.4862 118.896 98.6328C118.225 98.526 118.225 98.526 117.676 98.3887C117.676 98.2276 117.676 98.0664 117.676 97.9004C118.042 97.8232 118.408 97.7471 118.774 97.6715C118.978 97.629 119.182 97.5866 119.392 97.5428C121.159 97.2244 122.843 97.1358 124.634 97.1527Z" fill="#232629"/>
<path d="M163.086 153.32C163.167 153.643 163.247 153.965 163.33 154.297C163.733 154.297 164.136 154.297 164.551 154.297C163.925 155.328 163.17 155.729 162.109 156.25C161.787 156.25 161.465 156.25 161.133 156.25C161.052 155.847 160.972 155.444 160.889 155.029C160.164 155.634 160.164 155.634 159.424 156.25C159.263 156.169 159.102 156.089 158.936 156.006C159.372 155.603 159.81 155.202 160.248 154.8C160.434 154.629 160.434 154.629 160.624 154.454C161.863 153.32 161.863 153.32 163.086 153.32Z" fill="#3A3836"/>
<path d="M125.977 100.83C125.091 101.318 124.261 101.479 123.273 101.645C123.118 101.699 122.963 101.752 122.803 101.807C122.722 102.048 122.642 102.29 122.559 102.539C121.933 102.951 121.933 102.951 121.338 103.271C121.338 103.11 121.338 102.949 121.338 102.783C121.096 102.864 120.854 102.944 120.605 103.027C120.184 103.044 119.761 103.048 119.339 103.043C119.009 103.039 119.009 103.039 118.672 103.036C118.505 103.033 118.337 103.03 118.164 103.027C118.245 102.786 118.325 102.544 118.408 102.295C118.838 102.104 118.838 102.104 119.395 101.965C119.698 101.888 119.698 101.888 120.007 101.809C120.22 101.758 120.432 101.707 120.651 101.654C120.859 101.601 121.067 101.548 121.281 101.494C122.855 101.099 124.345 100.791 125.977 100.83Z" fill="#BCB6AF"/>
<path d="M86.1816 160.645C87.2802 161.693 88.23 162.84 89.1876 164.017C89.4239 164.305 89.4239 164.305 89.6649 164.6C90.0507 165.071 90.4358 165.543 90.8203 166.016C89.9249 166.016 89.8145 165.846 89.179 165.249C89.0074 165.088 88.8357 164.927 88.6588 164.762C88.4808 164.591 88.3029 164.421 88.1195 164.246C87.8511 163.996 87.8511 163.996 87.5773 163.741C86.1289 162.371 86.1289 162.371 85.6934 161.377C85.8545 161.135 86.0156 160.894 86.1816 160.645Z" fill="#E6E4E5"/>
<path d="M86.1817 171.387C87.6054 172.147 89.0105 172.899 90.3321 173.828C90.0098 174.15 89.6875 174.473 89.3555 174.805C88.8221 174.516 88.295 174.221 87.7686 173.92C87.6172 173.839 87.4658 173.758 87.3099 173.675C86.876 173.422 86.876 173.422 86.1817 172.852C86.0825 172.052 86.0825 172.052 86.1817 171.387Z" fill="#EDEEED"/>
<path d="M177.246 156.494C177.246 157.227 177.246 157.227 176.826 157.71C176.543 157.977 176.543 157.977 176.254 158.249C175.529 158.949 174.833 159.649 174.179 160.416C173.3 161.441 172.352 162.387 171.387 163.33C171.226 163.25 171.064 163.169 170.898 163.086C171.067 162.903 171.235 162.72 171.409 162.531C171.64 162.278 171.872 162.026 172.104 161.774C172.225 161.641 172.347 161.509 172.472 161.373C173.243 160.533 174.003 159.683 174.759 158.829C175.536 157.961 176.323 157.204 177.246 156.494Z" fill="#535451"/>
<path d="M121.338 102.783C120.968 103.818 120.315 104.2 119.385 104.736C118.561 105.042 118.561 105.042 117.92 105.225C118 104.902 118.081 104.58 118.164 104.248C118.325 104.248 118.486 104.248 118.652 104.248C118.652 104.087 118.652 103.926 118.652 103.76C118.169 103.599 117.686 103.438 117.188 103.271C117.188 103.191 117.188 103.11 117.188 103.027C117.742 102.986 118.296 102.946 118.851 102.905C119.314 102.871 119.314 102.871 119.786 102.837C120.303 102.803 120.82 102.783 121.338 102.783Z" fill="#272D35"/>
<path d="M110.84 98.8769C110.598 98.9575 110.356 99.0381 110.107 99.1211C110.107 99.3628 110.107 99.6045 110.107 99.8535C109.869 99.9155 109.63 99.9775 109.384 100.041C109.06 100.126 108.737 100.211 108.414 100.296C108.163 100.362 108.163 100.362 107.907 100.429C106.982 100.675 106.08 100.946 105.179 101.273C104.282 101.552 104.098 101.588 103.271 101.318C110.025 98.4696 110.025 98.4696 110.84 98.8769Z" fill="#E5EAEB"/>
<path d="M125 87.8906C123.825 88.4271 122.668 88.819 121.419 89.1495C120.801 89.373 120.377 89.671 119.873 90.0879C119.631 89.9268 119.39 89.7656 119.141 89.5996C120.084 88.7361 120.986 88.3601 122.208 88.0585C122.369 88.0143 122.53 87.9701 122.695 87.9245C123.535 87.7076 124.178 87.5664 125 87.8906Z" fill="#D2D4D3"/>
<path d="M127.197 90.8203C127.117 90.9814 127.036 91.1426 126.953 91.3086C126.253 91.4088 126.253 91.4088 125.327 91.4631C125.165 91.4732 125.003 91.4834 124.836 91.4938C124.316 91.5258 123.796 91.5546 123.276 91.5832C122.924 91.6043 122.572 91.6256 122.221 91.6471C121.357 91.6995 120.493 91.7489 119.629 91.7969C121.746 90.3858 124.753 90.7687 127.197 90.8203Z" fill="#333635"/>
<path d="M147.461 166.992C148.011 167.649 148.409 168.127 148.682 168.945C148.601 169.106 148.521 169.268 148.438 169.434C147.473 169.299 146.643 169.094 145.752 168.701C146.322 168.132 146.891 167.562 147.461 166.992Z" fill="#61615F"/>
<path d="M128.464 106.644C128.687 106.641 128.91 106.638 129.14 106.635C129.46 106.634 129.46 106.634 129.786 106.633C130.078 106.632 130.078 106.632 130.375 106.63C130.859 106.689 130.859 106.689 131.348 107.178C130.57 107.226 129.791 107.271 129.013 107.315C128.685 107.336 128.685 107.336 128.351 107.357C127.108 107.425 125.98 107.404 124.756 107.178C124.756 107.097 124.756 107.017 124.756 106.934C125.981 106.612 127.207 106.645 128.464 106.644Z" fill="#313633"/>
<path d="M119.873 89.1113C119.712 89.2725 119.551 89.4336 119.385 89.5996C119.465 89.7607 119.546 89.9219 119.629 90.0879C117.332 90.8837 117.332 90.8837 116.211 91.0645C116.453 90.9839 116.694 90.9033 116.943 90.8203C116.999 90.5836 117.054 90.347 117.111 90.1031C117.432 89.3555 117.432 89.3555 117.879 89.1418C119.232 88.7908 119.232 88.7908 119.873 89.1113Z" fill="#3B3538"/>
<path d="M61.0352 158.936C61.0352 159.097 61.0352 159.258 61.0352 159.424C60.7935 159.545 60.7935 159.545 60.5469 159.668C60.6274 159.99 60.708 160.312 60.791 160.645C59.9048 160.645 59.0186 160.645 58.1055 160.645C59.7245 158.936 59.7245 158.936 61.0352 158.936Z" fill="#1F1F1F"/>
<path d="M156.25 127.93C156.411 127.93 156.572 127.93 156.738 127.93C156.636 129.693 156.505 131.359 156.006 133.057C155.845 133.057 155.684 133.057 155.518 133.057C155.437 133.218 155.356 133.379 155.273 133.545C155.445 132.28 155.659 131.029 155.899 129.776C155.933 129.597 155.967 129.419 156.002 129.235C156.084 128.8 156.167 128.365 156.25 127.93Z" fill="#242324"/>
<path d="M165.039 167.969C165.2 168.049 165.361 168.13 165.527 168.213C164.728 168.903 164.036 169.462 163.086 169.922C162.874 170.093 162.663 170.264 162.445 170.441C161.865 170.898 161.865 170.898 161.377 170.898C161.784 169.936 162.409 169.241 163.086 168.457C163.365 168.54 163.365 168.54 163.651 168.625C163.867 168.65 164.084 168.675 164.307 168.701C164.755 168.376 164.755 168.376 165.039 167.969Z" fill="#E5E3DE"/>
<path d="M118.164 90.0879C118.325 90.249 118.486 90.4102 118.652 90.5762C118.411 90.6567 118.169 90.7373 117.92 90.8203C117.92 90.9814 117.92 91.1426 117.92 91.3086C118.162 91.4697 118.403 91.6309 118.652 91.7969C117.7 92.4317 116.828 92.322 115.723 92.2852C116.045 92.124 116.367 91.9629 116.699 91.7969C116.699 91.6357 116.699 91.4746 116.699 91.3086C116.216 91.3086 115.732 91.3086 115.234 91.3086C115.234 91.228 115.234 91.1475 115.234 91.0645C115.536 91.0292 115.839 90.994 116.15 90.9576C116.837 90.8723 117.498 90.7706 118.164 90.5762C118.164 90.415 118.164 90.2539 118.164 90.0879Z" fill="#A59B9C"/>
<path d="M158.691 176.758C158.895 177.34 158.965 177.645 158.772 178.24C158.685 178.405 158.598 178.571 158.508 178.741C158.424 178.908 158.34 179.075 158.253 179.247C157.959 179.688 157.959 179.688 157.227 180.176C157.227 179.692 157.227 179.209 157.227 178.711C157.388 178.711 157.549 178.711 157.715 178.711C157.695 178.525 157.675 178.338 157.654 178.146C157.715 177.49 157.715 177.49 158.203 177.048C158.364 176.952 158.525 176.856 158.691 176.758Z" fill="#504C49"/>
<path d="M159.912 172.119C160.154 172.28 160.396 172.441 160.645 172.607C160.483 173.518 160.239 174.361 159.927 175.232C159.845 175.467 159.762 175.703 159.677 175.945C159.424 176.514 159.424 176.514 158.936 176.758C159.119 175.41 159.119 175.41 159.439 174.789C159.725 174.199 159.704 173.743 159.668 173.096C159.426 173.217 159.426 173.217 159.18 173.34C159.637 172.394 159.637 172.394 159.912 172.119Z" fill="#332D28"/>
<path d="M125.977 100.83C125.023 101.391 123.991 101.602 122.925 101.852C122.739 101.899 122.554 101.945 122.363 101.993C122.183 102.036 122.004 102.078 121.819 102.122C121.656 102.161 121.493 102.2 121.326 102.241C120.783 102.302 120.391 102.212 119.873 102.051C120.371 101.892 120.87 101.735 121.368 101.578C121.785 101.446 121.785 101.446 122.21 101.312C123.485 100.95 124.652 100.799 125.977 100.83Z" fill="#484B49"/>
<path d="M95.9473 99.6094C96.4383 100.516 96.5361 101.245 96.6034 102.28C96.6245 102.574 96.6456 102.868 96.6673 103.171C96.6783 103.908 96.615 104.513 96.4356 105.225C95.9473 104.736 95.9473 104.736 95.8918 104.21C95.8944 103.998 95.897 103.786 95.8996 103.567C95.9012 103.337 95.9027 103.108 95.9044 102.871C95.9085 102.631 95.9125 102.39 95.9168 102.142C95.919 101.9 95.9212 101.658 95.9234 101.408C95.9292 100.808 95.9372 100.209 95.9473 99.6094Z" fill="#050404"/>
<path d="M81.543 141.846C82.2739 142.53 82.8123 143.216 83.3282 144.073C83.5232 144.392 83.5232 144.392 83.7221 144.716C83.8087 144.897 83.8952 145.078 83.9844 145.264C83.9038 145.425 83.8232 145.586 83.7402 145.752C81.543 143.545 81.543 143.545 81.543 141.846Z" fill="#E9E7E8"/>
<path d="M84.9609 159.18C85.5865 159.729 85.5865 159.729 86.1816 160.4C86.1359 160.965 86.1359 160.965 85.9375 161.377C85.6958 161.377 85.4541 161.377 85.2051 161.377C84.671 160.645 84.671 160.645 84.2285 159.912C84.4702 159.67 84.7119 159.429 84.9609 159.18Z" fill="#EFECEE"/>
<path d="M163.086 153.32C163.116 153.471 163.146 153.622 163.177 153.778C163.299 154.344 163.299 154.344 163.818 154.785C163.086 155.273 163.086 155.273 162.109 155.273C162.079 155.077 162.049 154.881 162.018 154.678C161.942 154.369 161.942 154.369 161.865 154.053C161.704 153.972 161.543 153.892 161.377 153.809C162.109 153.32 162.109 153.32 163.086 153.32Z" fill="#7A7871"/>
<path d="M111.572 94.9707C112.06 95.0551 112.548 95.1371 113.037 95.2149C113.037 95.2954 113.037 95.376 113.037 95.459C112.831 95.4681 112.624 95.4772 112.411 95.4867C110.531 95.5844 110.531 95.5844 108.734 96.0999C107.91 96.4356 107.91 96.4356 107.178 96.1914C107.61 95.9926 108.042 95.7943 108.475 95.5963C108.715 95.4859 108.956 95.3754 109.204 95.2616C110.148 94.8451 110.594 94.6912 111.572 94.9707Z" fill="#C7C7C7"/>
<path d="M116.699 91.3086C116.699 91.4697 116.699 91.6309 116.699 91.7969C115.795 92.3769 115.007 92.3352 113.953 92.3157C113.644 92.3113 113.336 92.3069 113.018 92.3023C112.783 92.2967 112.547 92.291 112.305 92.2852C113.611 91.414 115.144 91.2288 116.699 91.3086Z" fill="#E3DDD7"/>
<path d="M119.141 98.1445C120.643 98.2876 120.643 98.2876 121.094 98.3887C121.174 98.5498 121.255 98.7109 121.338 98.877C121.173 98.9242 121.008 98.9714 120.838 99.02C120.511 99.1154 120.511 99.1154 120.178 99.2126C119.963 99.275 119.748 99.3373 119.526 99.4015C118.955 99.5901 118.449 99.8135 117.92 100.098C117.839 99.7754 117.759 99.4531 117.676 99.1211C118.24 98.96 118.804 98.7988 119.385 98.6328C119.304 98.4717 119.224 98.3105 119.141 98.1445Z" fill="#161515"/>
<path d="M94.7266 177.002C96.0922 177.993 97.3778 179.048 98.6328 180.176C97.6349 180.176 97.0594 179.685 96.2677 179.138C96.1196 179.042 95.9716 178.945 95.819 178.845C95.3951 178.555 95.3951 178.555 94.7266 177.979C94.7266 177.656 94.7266 177.334 94.7266 177.002Z" fill="#DBDCDB"/>
<path d="M120.85 91.5527C121.583 91.5743 122.314 91.5674 123.047 91.5527C123.047 91.6333 123.047 91.7139 123.047 91.7969C121.403 92.2121 120.085 92.3114 118.408 92.041C118.936 90.9862 119.879 91.391 120.85 91.5527Z" fill="#48494C"/>
<path d="M87.6465 163.086C88.4312 163.156 88.6459 163.354 89.1991 163.941C89.3917 164.188 89.5843 164.434 89.7827 164.688C89.9778 164.935 90.173 165.182 90.374 165.437C90.5213 165.628 90.6686 165.819 90.8203 166.016C89.7567 166.016 89.3418 165.459 88.5763 164.768C88.0777 164.247 87.8168 163.789 87.6465 163.086Z" fill="#B9B6B7"/>
<path d="M114.502 93.5059C114.824 93.667 115.146 93.8281 115.479 93.9941C113.534 94.4579 111.59 94.8791 109.619 95.2148C109.619 95.0537 109.619 94.8926 109.619 94.7266C110.551 94.1234 111.535 94.1313 112.61 94.0857C112.792 94.0763 112.974 94.0668 113.161 94.0571C113.608 94.0342 114.055 94.0139 114.502 93.9941C114.502 93.833 114.502 93.6719 114.502 93.5059Z" fill="#323138"/>
<path d="M110.84 211.426C110.92 211.587 111.001 211.748 111.084 211.914C112.346 211.815 112.346 211.815 113.525 211.426C113.373 211.884 113.373 211.884 113.037 212.402C112.274 212.708 112.274 212.708 111.572 212.891C111.572 212.729 111.572 212.568 111.572 212.402C111.25 212.483 110.928 212.563 110.596 212.646C110.676 212.244 110.757 211.841 110.84 211.426Z" fill="#414040"/>
<path d="M177.246 156.494C177.246 157.227 177.246 157.227 176.765 157.779C176.562 157.974 176.358 158.17 176.147 158.371C175.944 158.568 175.74 158.766 175.529 158.969C175.371 159.119 175.212 159.269 175.049 159.424C174.888 159.263 174.727 159.102 174.561 158.936C174.916 158.574 175.272 158.213 175.629 157.852C175.827 157.651 176.025 157.45 176.229 157.243C176.758 156.738 176.758 156.738 177.246 156.494Z" fill="#474747"/>
<path d="M134.766 179.932C134.927 180.012 135.088 180.093 135.254 180.176C134.368 181.143 133.481 182.109 132.568 183.105C132.488 182.864 132.407 182.622 132.324 182.373C133.13 181.567 133.936 180.762 134.766 179.932Z" fill="#282828"/>
<path d="M163.574 169.189C163.735 169.27 163.896 169.351 164.062 169.434C163.76 169.756 163.454 170.076 163.147 170.395C162.977 170.573 162.807 170.752 162.632 170.936C161.879 171.586 161.377 171.631 160.4 171.631C160.982 170.988 161.612 170.607 162.354 170.166C162.765 169.846 163.173 169.522 163.574 169.189Z" fill="#79756B"/>
<path d="M74.2188 103.76C74.5023 104.459 74.4616 104.74 74.2197 105.473C74.0455 105.863 74.0455 105.863 73.8678 106.262C73.7523 106.525 73.6368 106.788 73.5178 107.059C73.4268 107.26 73.3359 107.46 73.2422 107.666C73.0811 107.666 72.9199 107.666 72.7539 107.666C73.1807 106.331 73.647 105.039 74.2188 103.76Z" fill="#282C2B"/>
<path d="M113.327 94.4671C113.788 94.4747 113.788 94.4747 114.258 94.4824C114.258 94.6435 114.258 94.8047 114.258 94.9707C113.641 95.2789 113.205 95.2389 112.518 95.2301C112.296 95.2279 112.074 95.2257 111.845 95.2234C111.674 95.2206 111.504 95.2177 111.328 95.2148C111.751 94.3699 112.479 94.4532 113.327 94.4671Z" fill="#F4F3F4"/>
<path d="M156.494 158.203C156.655 158.284 156.816 158.364 156.982 158.447C156.824 158.591 156.824 158.591 156.662 158.737C156.219 159.181 156.219 159.181 155.884 159.805C155.518 160.4 155.518 160.4 154.785 160.889C154.705 160.647 154.624 160.405 154.541 160.156C155.186 159.512 155.83 158.867 156.494 158.203Z" fill="#2F2C2D"/>
<path d="M173.34 145.02C173.538 145.432 173.538 145.432 173.584 145.996C172.912 146.822 172.427 147.258 171.387 147.461C171.62 147.145 171.854 146.83 172.089 146.515C172.219 146.339 172.349 146.164 172.483 145.983C172.852 145.508 172.852 145.508 173.34 145.02Z" fill="#202020"/>
<path d="M125.519 97.1527C125.786 97.1549 126.054 97.1571 126.329 97.1594C126.535 97.1622 126.741 97.1651 126.953 97.168C126.192 97.6057 125.567 97.74 124.695 97.8088C124.477 97.8271 124.259 97.8454 124.035 97.8642C123.87 97.8761 123.705 97.8881 123.535 97.9004C123.535 97.7393 123.535 97.5781 123.535 97.4121C124.21 97.0746 124.767 97.1447 125.519 97.1527Z" fill="#171A17"/>
<path d="M147.461 166.992C148.011 167.649 148.409 168.127 148.682 168.945C148.601 169.106 148.521 169.268 148.438 169.434C147.712 169.313 147.712 169.313 146.973 169.189C146.973 169.109 146.973 169.028 146.973 168.945C147.375 168.945 147.778 168.945 148.193 168.945C148.027 168.804 147.861 168.663 147.69 168.518C147.534 168.337 147.378 168.156 147.217 167.969C147.278 167.419 147.278 167.419 147.461 166.992Z" fill="#3E3D3B"/>
<path d="M157.959 179.199C158.201 179.28 158.442 179.36 158.691 179.443C158.327 180.37 157.774 180.813 156.982 181.396C156.821 181.316 156.66 181.235 156.494 181.152C156.978 180.508 157.461 179.863 157.959 179.199Z" fill="#EBEAE9"/>
<path d="M121.338 102.783C121.082 103.423 120.935 103.709 120.331 104.065C120.18 104.125 120.029 104.186 119.873 104.248C119.712 103.926 119.551 103.604 119.385 103.271C120.094 102.965 120.556 102.783 121.338 102.783Z" fill="#3F464C"/>
<path d="M119.873 97.6563C119.873 97.898 119.873 98.1397 119.873 98.3887C119.061 98.6593 118.501 98.5949 117.676 98.3887C117.676 98.2276 117.676 98.0664 117.676 97.9004C118.456 97.6403 119.057 97.6381 119.873 97.6563Z" fill="#313738"/>
<path d="M122.559 93.9941C123.284 93.9941 124.009 93.9941 124.756 93.9941C124.756 94.1553 124.756 94.3164 124.756 94.4824C123.185 94.6033 123.185 94.6033 121.582 94.7266C121.904 94.646 122.227 94.5654 122.559 94.4824C122.559 94.3213 122.559 94.1602 122.559 93.9941Z" fill="#202523"/>
<path d="M119.385 88.8672C119.546 88.9478 119.707 89.0283 119.873 89.1113C119.712 89.2725 119.551 89.4336 119.385 89.5996C119.465 89.7607 119.546 89.9219 119.629 90.0879C119.226 90.1685 118.823 90.249 118.408 90.332C118.328 90.0098 118.247 89.6875 118.164 89.3555C118.744 89.0961 118.744 89.0961 119.385 88.8672Z" fill="#4C4547"/>
<path d="M121.048 88.6841C121.312 88.7747 121.312 88.7747 121.582 88.8672C120.926 89.4171 120.448 89.815 119.629 90.0879C119.468 89.9268 119.307 89.7656 119.141 89.5996C120.192 88.608 120.192 88.608 121.048 88.6841Z" fill="#9B9899"/>
<path d="M161.865 171.143C161.576 171.967 161.31 172.521 160.645 173.096C160.483 172.693 160.322 172.29 160.156 171.875C161.316 171.143 161.316 171.143 161.865 171.143Z" fill="#3E3431"/>
<path d="M87.1582 161.865C87.6465 162.308 87.6465 162.308 88.1348 162.842C88.1348 163.083 88.1348 163.325 88.1348 163.574C88.2959 163.735 88.457 163.896 88.623 164.062C87.9592 163.971 87.685 163.857 87.204 163.376C86.9141 162.842 86.9141 162.842 86.9904 162.292C87.0457 162.151 87.1011 162.01 87.1582 161.865Z" fill="#D7D5D5"/>
<path d="M162.109 153.809C162.109 154.292 162.109 154.775 162.109 155.273C162.351 155.354 162.593 155.435 162.842 155.518C162.439 155.518 162.036 155.518 161.621 155.518C161.591 155.361 161.561 155.205 161.53 155.045C161.454 154.795 161.454 154.795 161.377 154.541C161.216 154.46 161.055 154.38 160.889 154.297C161.835 153.809 161.835 153.809 162.109 153.809Z" fill="#4D4A45"/>
<path d="M122.803 101.807C122.499 102.719 122.16 102.829 121.338 103.271C121.338 103.11 121.338 102.949 121.338 102.783C121.096 102.703 120.854 102.622 120.605 102.539C120.686 102.378 120.767 102.217 120.85 102.051C121.509 101.911 122.128 101.807 122.803 101.807Z" fill="#B3A5A3"/>
<path d="M183.594 167.236C183.463 167.297 183.332 167.357 183.197 167.419C182.479 167.797 181.822 168.245 181.152 168.701C181.152 168.379 181.152 168.057 181.152 167.725C182.77 166.962 182.77 166.962 183.594 167.236Z" fill="#1E1E1E"/>
<path d="M120.361 89.1113C120.684 89.1113 121.006 89.1113 121.338 89.1113C121.338 89.8438 121.338 89.8438 120.758 90.4999C120.117 91.0645 120.117 91.0645 119.629 91.0645C119.629 90.8228 119.629 90.5811 119.629 90.332C119.79 90.332 119.951 90.332 120.117 90.332C120.198 89.9292 120.278 89.5264 120.361 89.1113Z" fill="#DFDDDB"/>
<path d="M159.912 174.072C159.993 174.233 160.073 174.395 160.156 174.561C159.967 175.089 159.967 175.089 159.683 175.69C159.59 175.889 159.498 176.089 159.402 176.294C159.329 176.447 159.255 176.6 159.18 176.758C158.92 175.961 158.917 175.823 159.271 175.003C159.668 174.316 159.668 174.316 159.912 174.072Z" fill="#969085"/>
<path d="M158.691 175.049C158.933 175.129 159.175 175.21 159.424 175.293C159.061 176.139 159.061 176.139 158.691 177.002C158.53 176.921 158.369 176.841 158.203 176.758C158.417 175.323 158.417 175.323 158.691 175.049Z" fill="#332E2C"/>
<path d="M134.521 144.043C135.247 144.285 135.972 144.526 136.719 144.775C136.558 144.937 136.396 145.098 136.23 145.264C135.62 145.233 135.62 145.233 135.01 145.02C134.849 144.697 134.688 144.375 134.521 144.043Z" fill="#1F2322"/>
<path d="M119.629 99.1211C119.046 99.583 118.635 99.8594 117.92 100.098C117.839 99.7754 117.759 99.4531 117.676 99.1211C118.421 98.8815 118.884 98.8815 119.629 99.1211Z" fill="#221E20"/>
<path d="M115.723 93.9941C115.803 94.2358 115.884 94.4775 115.967 94.7266C115.403 94.8071 114.839 94.8877 114.258 94.9707C114.258 94.8096 114.258 94.6484 114.258 94.4824C114.097 94.4019 113.936 94.3213 113.77 94.2383C114.414 94.1577 115.059 94.0771 115.723 93.9941Z" fill="#DEE0E1"/>
<path d="M172.363 161.377C172.524 161.538 172.686 161.699 172.852 161.865C172.368 162.349 171.885 162.832 171.387 163.33C171.226 163.25 171.064 163.169 170.898 163.086C171.382 162.522 171.865 161.958 172.363 161.377Z" fill="#8C8D8A"/>
<path d="M95.2148 96.9238C95.2954 96.9238 95.376 96.9238 95.459 96.9238C95.459 97.4878 95.459 98.0518 95.459 98.6328C95.0562 98.5522 94.6533 98.4717 94.2383 98.3887C94.5195 97.7861 94.7382 97.4004 95.2148 96.9238Z" fill="#F2F1F0"/>
<path d="M117.92 91.7969C118.484 91.958 119.048 92.1191 119.629 92.2852C119.054 92.6341 118.779 92.7946 118.103 92.6819C117.962 92.6315 117.821 92.5812 117.676 92.5293C117.756 92.2876 117.837 92.0459 117.92 91.7969Z" fill="#575961"/>
<path d="M162.109 153.32C162.432 153.32 162.754 153.32 163.086 153.32C163.116 153.471 163.146 153.622 163.177 153.778C163.299 154.344 163.299 154.344 163.818 154.785C163.416 154.705 163.013 154.624 162.598 154.541C162.598 154.219 162.598 153.896 162.598 153.564C162.437 153.484 162.275 153.403 162.109 153.32Z" fill="#BAB9B2"/>
<path d="M116.455 104.736C116.536 105.059 116.616 105.381 116.699 105.713C116.216 105.793 115.732 105.874 115.234 105.957C115.234 105.715 115.234 105.474 115.234 105.225C115.637 105.063 116.04 104.902 116.455 104.736Z" fill="#131524"/>
<path d="M116.943 92.5293C117.024 92.771 117.104 93.0127 117.188 93.2617C116.745 93.5211 116.745 93.5211 116.211 93.75C115.969 93.6694 115.728 93.5889 115.479 93.5059C115.64 93.5059 115.801 93.5059 115.967 93.5059C116.047 93.2642 116.128 93.0225 116.211 92.7734C116.453 92.6929 116.694 92.6123 116.943 92.5293Z" fill="#424244"/>
</g>
<defs>
<clipPath id="clip0_25_2">
<rect width="250" height="250" fill="white"/>
</clipPath>
</defs>
</svg>
