<svg width="20" height="20" viewBox="0 0 20 20" fill="none" xmlns="http://www.w3.org/2000/svg">
<path d="M7.50003 18.3333H6.52363C5.41265 18.3333 4.85715 18.3333 4.43209 18.1188C4.05041 17.9261 3.74051 17.6162 3.54785 17.2345C3.3333 16.8095 3.3333 16.254 3.3333 15.143V15.143C3.3333 14.1725 3.3333 13.6873 3.22454 13.2305C3.12615 12.8172 2.96254 12.4222 2.73987 12.0604C2.49375 11.6605 2.15063 11.3174 1.4644 10.6311L0.833252 10L1.46439 9.36887C2.15063 8.68264 2.49376 8.33953 2.73988 7.9396C2.96254 7.57779 3.12614 7.18283 3.22454 6.76955C3.3333 6.31272 3.3333 5.82748 3.3333 4.85699V4.85699C3.3333 3.74599 3.3333 3.19049 3.54786 2.76542C3.74051 2.38375 4.05041 2.07385 4.43208 1.8812C4.85716 1.66664 5.41266 1.66665 6.52367 1.66665C6.86487 1.66666 7.19284 1.66666 7.50003 1.66667M12.5 1.66667C12.8065 1.66666 13.1346 1.66665 13.4764 1.66665C14.5874 1.66665 15.1429 1.66665 15.568 1.8812C15.9496 2.07385 16.2595 2.38375 16.4522 2.76543C16.6668 3.1905 16.6668 3.746 16.6668 4.857V4.857C16.6668 5.82748 16.6668 6.31271 16.7755 6.76954C16.8739 7.18282 17.0375 7.57779 17.2602 7.9396C17.5063 8.33953 17.8494 8.68264 18.5357 9.36886L19.1668 10L18.5357 10.6311C17.8494 11.3174 17.5063 11.6605 17.2602 12.0604C17.0375 12.4222 16.8739 12.8172 16.7755 13.2305C16.6668 13.6873 16.6668 14.1725 16.6668 15.143V15.143C16.6668 16.254 16.6668 16.8095 16.4522 17.2345C16.2595 17.6162 15.9496 17.9261 15.568 18.1188C15.1429 18.3333 14.5874 18.3333 13.4764 18.3333H12.5M10.4167 5.83332C10.4167 6.06344 10.2301 6.24999 10 6.24999C9.7699 6.24999 9.58335 6.06344 9.58335 5.83332M10.4167 5.83332C10.4167 5.6032 10.2301 5.41666 10 5.41666C9.7699 5.41666 9.58335 5.6032 9.58335 5.83332M10.4167 5.83332H9.58335M10.4167 9.99999C10.4167 10.2301 10.2301 10.4167 10 10.4167C9.7699 10.4167 9.58335 10.2301 9.58335 9.99999M10.4167 9.99999C10.4167 9.76987 10.2301 9.58332 10 9.58332C9.7699 9.58332 9.58335 9.76987 9.58335 9.99999M10.4167 9.99999H9.58335M10.4167 14.1667C10.4167 14.3968 10.2301 14.5833 10 14.5833C9.7699 14.5833 9.58335 14.3968 9.58335 14.1667M10.4167 14.1667C10.4167 13.9365 10.2301 13.75 10 13.75C9.7699 13.75 9.58335 13.9365 9.58335 14.1667M10.4167 14.1667H9.58335" stroke="#8689AA" stroke-width="1.5" stroke-linecap="round" stroke-linejoin="round"/>
</svg>
