<svg width="32" height="32" viewBox="0 0 32 32" fill="none" xmlns="http://www.w3.org/2000/svg">
<path d="M7.52267 24.4933C7.36932 24.3415 7.24758 24.1609 7.1645 23.9618C7.08141 23.7627 7.03864 23.5491 7.03864 23.3333C7.03864 23.1176 7.08141 22.9039 7.1645 22.7048C7.24758 22.5057 7.36932 22.3251 7.52267 22.1733C8.63546 21.0597 9.95711 20.1768 11.4118 19.575C12.8665 18.9733 14.4257 18.6646 16 18.6666C17.5743 18.6645 19.1335 18.9732 20.5882 19.5749C22.043 20.1767 23.3646 21.0597 24.4773 22.1733C24.6307 22.3251 24.7524 22.5057 24.8355 22.7048C24.9186 22.9039 24.9614 23.1176 24.9614 23.3333C24.9614 23.5491 24.9186 23.7627 24.8355 23.9618C24.7524 24.1609 24.6307 24.3415 24.4773 24.4933C23.3645 25.6069 22.0429 26.4898 20.5882 27.0916C19.1335 27.6933 17.5743 28.002 16 28C14.4257 28.002 12.8665 27.6933 11.4118 27.0916C9.95711 26.4898 8.63546 25.6069 7.52267 24.4933Z" fill="#8689AA"/>
<path fill-rule="evenodd" clip-rule="evenodd" d="M11.3334 10H20.6667V10.6667H21.3334C21.3334 14.1827 19.092 17.3333 16 17.3333C12.908 17.3333 10.6667 14.1827 10.6667 10.6667H11.3334V10ZM12.0307 11.3333C12.284 14.0907 14.088 16 16 16C17.912 16 19.716 14.0907 19.9694 11.3333H12.0307Z" fill="#8689AA"/>
<path fill-rule="evenodd" clip-rule="evenodd" d="M16 4C19.3134 4 22 6.98533 22 10.6667H10C10 6.98533 12.6867 4 16 4ZM16 10C16.5305 10 17.0392 9.78929 17.4142 9.41421C17.7893 9.03914 18 8.53043 18 8C18 7.46957 17.7893 6.96086 17.4142 6.58579C17.0392 6.21071 16.5305 6 16 6C15.4696 6 14.9609 6.21071 14.5858 6.58579C14.2107 6.96086 14 7.46957 14 8C14 8.53043 14.2107 9.03914 14.5858 9.41421C14.9609 9.78929 15.4696 10 16 10ZM8.66669 11.3333C8.66669 11.1565 8.73693 10.987 8.86195 10.8619C8.98697 10.7369 9.15654 10.6667 9.33335 10.6667H22.6667C22.8435 10.6667 23.0131 10.7369 23.1381 10.8619C23.2631 10.987 23.3334 11.1565 23.3334 11.3333C23.3334 11.5101 23.2631 11.6797 23.1381 11.8047C23.0131 11.9298 22.8435 12 22.6667 12H9.33335C9.15654 12 8.98697 11.9298 8.86195 11.8047C8.73693 11.6797 8.66669 11.5101 8.66669 11.3333Z" fill="#8689AA"/>
</svg>
