<svg width="20" height="20" viewBox="0 0 20 20" fill="none" xmlns="http://www.w3.org/2000/svg">
<path d="M10.0842 2.41666C10.1788 2.36001 10.2921 2.34323 10.3992 2.36999L13.23 3.07582C13.3323 3.1016 13.421 3.16521 13.4782 3.25384C13.5354 3.34246 13.5569 3.44948 13.5383 3.55332C15.5092 4.47582 16.9758 5.99499 17.5508 7.70582C17.5804 7.79416 17.5796 7.88987 17.5485 7.97768C17.5173 8.06548 17.4576 8.14031 17.3789 8.19021C17.3002 8.24011 17.2071 8.26219 17.1144 8.25294C17.0217 8.24368 16.9348 8.20362 16.8675 8.13916C15.8592 7.17249 14.5392 6.32999 12.9992 5.72082L12.9783 5.80416C12.9515 5.91133 12.8833 6.00349 12.7886 6.06037C12.6939 6.11725 12.5805 6.1342 12.4733 6.10749L12.0692 6.00749L11.3133 9.03916C11.4205 9.06593 11.5127 9.13416 11.5695 9.22886C11.6264 9.32356 11.6434 9.43697 11.6167 9.54416L9.70165 17.2258C9.67488 17.333 9.60665 17.4252 9.51195 17.482C9.41725 17.5389 9.30384 17.5559 9.19665 17.5292L7.17498 17.025C7.06781 16.9982 6.97565 16.93 6.91877 16.8353C6.86189 16.7406 6.84494 16.6272 6.87165 16.52L8.78665 8.83832C8.81342 8.73115 8.88165 8.63899 8.97635 8.58211C9.07105 8.52523 9.18446 8.50828 9.29165 8.53499L10.0475 5.50332L9.64332 5.40249C9.59016 5.38924 9.54014 5.36564 9.49611 5.33303C9.45209 5.30043 9.41492 5.25946 9.38675 5.21248C9.35858 5.1655 9.33994 5.11342 9.33192 5.05922C9.32389 5.00503 9.32663 4.94979 9.33999 4.89666L9.36082 4.81332C7.71582 4.62832 6.15498 4.75249 4.81082 5.13249C4.72117 5.15783 4.62562 5.15239 4.53942 5.11705C4.45322 5.08171 4.38136 5.0185 4.3353 4.93752C4.28925 4.85653 4.27166 4.76246 4.28535 4.67031C4.29904 4.57816 4.34321 4.49325 4.41082 4.42916C5.72082 3.18916 7.72915 2.53582 9.90249 2.64582C9.93354 2.5503 9.99805 2.46838 10.0842 2.41666Z" fill="#8689AA"/>
</svg>
