    <svg
      xmlns="http://www.w3.org/2000/svg"
      width="24"
      height="24"
      fill="none"
      viewBox="0 0 24 24"
    >
      <path
        fill="#F9A136"
        d="M23.64 14.903c-1.602 6.428-8.114 10.34-14.544 8.738C2.669 22.038-1.244 15.527.359 9.098 1.962 2.67 8.473-1.244 14.902.36c6.43 1.603 10.342 8.115 8.739 14.544Z"
      />
      <path
        fill="#fff"
        d="M17.113 10.373c.238-1.59-.973-2.446-2.627-3.017l.536-2.155-1.31-.327-.523 2.098a54.894 54.894 0 0 0-1.05-.247l.526-2.112-1.31-.327-.537 2.154a43.77 43.77 0 0 1-.837-.197l.002-.006-1.808-.452-.349 1.401s.973.223.952.237c.531.133.627.484.611.763l-1.47 5.905c-.066.161-.23.403-.601.311.013.02-.953-.238-.953-.238l-.65 1.502 1.705.426c.317.08.628.163.934.241l-.542 2.18 1.31.327.536-2.157c.358.098.705.187 1.045.272l-.535 2.147 1.31.326.543-2.175c2.235.423 3.915.252 4.623-1.771.57-1.63-.029-2.57-1.205-3.182.857-.198 1.502-.762 1.674-1.927Zm-2.995 4.204c-.405 1.63-3.145.748-4.034.528l.72-2.889c.888.222 3.738.662 3.314 2.36Zm.406-4.227c-.37 1.482-2.65.729-3.39.544l.652-2.62c.74.185 3.123.53 2.738 2.076Z"
      />
    </svg>
