<svg width="90" height="36" viewBox="0 0 90 36" fill="none" xmlns="http://www.w3.org/2000/svg">
<path d="M17.68 15.096H21.424V10.2H23.296V15.096H27.904V16.824H23.296V24.552C23.296 25.032 23.512 25.272 23.944 25.272H27.328V27H23.272C22.728 27 22.28 26.824 21.928 26.472C21.592 26.12 21.424 25.672 21.424 25.128V16.824H17.68V15.096ZM41.2553 15.096H43.3913L39.8873 20.76V21.048L43.6793 27H41.4953L38.2553 21.768H37.8233L34.5833 27H32.3993L36.1913 21.048V20.76L32.6873 15.096H34.8233L37.8233 20.04H38.2553L41.2553 15.096ZM47.4786 25.272H51.7986V11.928H47.6226V10.2H53.6706V25.272H57.9906V27H47.4786V25.272ZM70.8139 24.984H70.5259C70.1419 25.784 69.6059 26.376 68.9179 26.76C68.2459 27.144 67.5339 27.336 66.7819 27.336C65.9979 27.336 65.2699 27.208 64.5979 26.952C63.9259 26.68 63.3339 26.288 62.8219 25.776C62.3259 25.248 61.9339 24.608 61.6459 23.856C61.3579 23.104 61.2139 22.232 61.2139 21.24V20.856C61.2139 19.88 61.3579 19.016 61.6459 18.264C61.9339 17.512 62.3259 16.88 62.8219 16.368C63.3339 15.84 63.9259 15.44 64.5979 15.168C65.2699 14.896 65.9819 14.76 66.7339 14.76C67.5499 14.76 68.2859 14.944 68.9419 15.312C69.6139 15.664 70.1419 16.216 70.5259 16.968H70.8139V15.096H72.6859V24.552C72.6859 25.032 72.9019 25.272 73.3339 25.272H73.9339V27H72.6619C72.1179 27 71.6699 26.824 71.3179 26.472C70.9819 26.12 70.8139 25.672 70.8139 25.128V24.984ZM66.9739 25.56C67.5339 25.56 68.0459 25.456 68.5099 25.248C68.9899 25.04 69.3979 24.744 69.7339 24.36C70.0699 23.976 70.3339 23.52 70.5259 22.992C70.7179 22.448 70.8139 21.848 70.8139 21.192V20.904C70.8139 20.264 70.7179 19.68 70.5259 19.152C70.3339 18.608 70.0619 18.144 69.7099 17.76C69.3739 17.376 68.9659 17.08 68.4859 16.872C68.0219 16.648 67.5179 16.536 66.9739 16.536C66.4139 16.536 65.9019 16.64 65.4379 16.848C64.9739 17.056 64.5659 17.352 64.2139 17.736C63.8779 18.104 63.6139 18.56 63.4219 19.104C63.2299 19.632 63.1339 20.216 63.1339 20.856V21.24C63.1339 22.6 63.4859 23.664 64.1899 24.432C64.9099 25.184 65.8379 25.56 66.9739 25.56ZM78.3092 27H76.4373V10.2H78.3092V16.968H78.5973C79.0133 16.248 79.5893 15.704 80.3253 15.336C81.0613 14.952 81.8613 14.76 82.7253 14.76C83.4613 14.76 84.1573 14.896 84.8133 15.168C85.4693 15.44 86.0453 15.832 86.5413 16.344C87.0533 16.856 87.4533 17.488 87.7413 18.24C88.0453 18.992 88.1973 19.848 88.1973 20.808V21.288C88.1973 22.264 88.0533 23.128 87.7653 23.88C87.4773 24.632 87.0773 25.264 86.5653 25.776C86.0693 26.288 85.4853 26.68 84.8133 26.952C84.1413 27.208 83.4293 27.336 82.6773 27.336C82.2933 27.336 81.9013 27.288 81.5013 27.192C81.1013 27.112 80.7173 26.984 80.3493 26.808C79.9973 26.616 79.6693 26.392 79.3653 26.136C79.0613 25.864 78.8053 25.544 78.5973 25.176H78.3092V27ZM82.2933 25.56C82.8693 25.56 83.3973 25.464 83.8773 25.272C84.3573 25.064 84.7733 24.776 85.1253 24.408C85.4933 24.04 85.7733 23.592 85.9653 23.064C86.1733 22.536 86.2773 21.944 86.2773 21.288V20.808C86.2773 20.168 86.1733 19.592 85.9653 19.08C85.7733 18.552 85.4933 18.104 85.1253 17.736C84.7733 17.352 84.3493 17.056 83.8533 16.848C83.3733 16.64 82.8533 16.536 82.2933 16.536C81.7333 16.536 81.2133 16.648 80.7333 16.872C80.2533 17.08 79.8293 17.376 79.4613 17.76C79.1093 18.144 78.8293 18.608 78.6213 19.152C78.4133 19.68 78.3092 20.264 78.3092 20.904V21.192C78.3092 21.848 78.4133 22.448 78.6213 22.992C78.8293 23.52 79.1093 23.976 79.4613 24.36C79.8293 24.744 80.2533 25.04 80.7333 25.248C81.2133 25.456 81.7333 25.56 82.2933 25.56Z" fill="#8689AA"/>
<path d="M2 10L10 18L2 26" stroke="#8689AA" stroke-width="2.5" stroke-linecap="round" stroke-linejoin="round"/>
</svg>
