<svg width="133" height="36" viewBox="0 0 133 36" fill="none" xmlns="http://www.w3.org/2000/svg">
<path d="M47.528 27H45.656V10.2H47.528V16.968H47.816C48.232 16.248 48.808 15.704 49.544 15.336C50.28 14.952 51.08 14.76 51.944 14.76C52.68 14.76 53.376 14.896 54.032 15.168C54.688 15.44 55.264 15.832 55.76 16.344C56.272 16.856 56.672 17.488 56.96 18.24C57.264 18.992 57.416 19.848 57.416 20.808V21.288C57.416 22.264 57.272 23.128 56.984 23.88C56.696 24.632 56.296 25.264 55.784 25.776C55.288 26.288 54.704 26.68 54.032 26.952C53.36 27.208 52.648 27.336 51.896 27.336C51.512 27.336 51.12 27.288 50.72 27.192C50.32 27.112 49.936 26.984 49.568 26.808C49.216 26.616 48.888 26.392 48.584 26.136C48.28 25.864 48.024 25.544 47.816 25.176H47.528V27ZM51.512 25.56C52.088 25.56 52.616 25.464 53.096 25.272C53.576 25.064 53.992 24.776 54.344 24.408C54.712 24.04 54.992 23.592 55.184 23.064C55.392 22.536 55.496 21.944 55.496 21.288V20.808C55.496 20.168 55.392 19.592 55.184 19.08C54.992 18.552 54.712 18.104 54.344 17.736C53.992 17.352 53.568 17.056 53.072 16.848C52.592 16.64 52.072 16.536 51.512 16.536C50.952 16.536 50.432 16.648 49.952 16.872C49.472 17.08 49.048 17.376 48.68 17.76C48.328 18.144 48.048 18.608 47.84 19.152C47.632 19.68 47.528 20.264 47.528 20.904V21.192C47.528 21.848 47.632 22.448 47.84 22.992C48.048 23.52 48.328 23.976 48.68 24.36C49.048 24.744 49.472 25.04 49.952 25.248C50.432 25.456 50.952 25.56 51.512 25.56ZM60.3753 15.096H64.1193V10.2H65.9913V15.096H70.5993V16.824H65.9913V24.552C65.9913 25.032 66.2073 25.272 66.6393 25.272H70.0233V27H65.9673C65.4233 27 64.9753 26.824 64.6233 26.472C64.2873 26.12 64.1193 25.672 64.1193 25.128V16.824H60.3753V15.096ZM86.6146 22.776C86.4866 23.432 86.2626 24.04 85.9426 24.6C85.6386 25.16 85.2466 25.648 84.7666 26.064C84.2866 26.464 83.7266 26.776 83.0866 27C82.4466 27.224 81.7346 27.336 80.9506 27.336C80.1186 27.336 79.3266 27.2 78.5746 26.928C77.8386 26.656 77.1906 26.264 76.6306 25.752C76.0706 25.224 75.6226 24.584 75.2866 23.832C74.9666 23.08 74.8066 22.216 74.8066 21.24V20.952C74.8066 19.992 74.9666 19.128 75.2866 18.36C75.6226 17.592 76.0706 16.944 76.6306 16.416C77.1906 15.888 77.8386 15.48 78.5746 15.192C79.3266 14.904 80.1186 14.76 80.9506 14.76C81.7026 14.76 82.3986 14.872 83.0386 15.096C83.6786 15.32 84.2386 15.64 84.7186 16.056C85.2146 16.456 85.6146 16.936 85.9186 17.496C86.2386 18.056 86.4546 18.664 86.5666 19.32L84.6946 19.752C84.6466 19.336 84.5266 18.936 84.3346 18.552C84.1586 18.152 83.9106 17.808 83.5906 17.52C83.2866 17.216 82.9106 16.976 82.4626 16.8C82.0146 16.624 81.4946 16.536 80.9026 16.536C80.3266 16.536 79.7826 16.648 79.2706 16.872C78.7746 17.08 78.3346 17.384 77.9506 17.784C77.5666 18.168 77.2626 18.632 77.0386 19.176C76.8306 19.72 76.7266 20.312 76.7266 20.952V21.24C76.7266 21.912 76.8306 22.52 77.0386 23.064C77.2626 23.592 77.5666 24.04 77.9506 24.408C78.3346 24.776 78.7826 25.064 79.2946 25.272C79.8066 25.464 80.3586 25.56 80.9506 25.56C81.5426 25.56 82.0546 25.472 82.4866 25.296C82.9346 25.104 83.3106 24.864 83.6146 24.576C83.9346 24.272 84.1826 23.928 84.3586 23.544C84.5506 23.16 84.6786 22.76 84.7426 22.344L86.6146 22.776ZM90.1739 25.272H94.4939V11.928H90.3179V10.2H96.3659V25.272H100.686V27H90.1739V25.272ZM113.509 24.984H113.221C112.837 25.784 112.301 26.376 111.613 26.76C110.941 27.144 110.229 27.336 109.477 27.336C108.693 27.336 107.965 27.208 107.293 26.952C106.621 26.68 106.029 26.288 105.517 25.776C105.021 25.248 104.629 24.608 104.341 23.856C104.053 23.104 103.909 22.232 103.909 21.24V20.856C103.909 19.88 104.053 19.016 104.341 18.264C104.629 17.512 105.021 16.88 105.517 16.368C106.029 15.84 106.621 15.44 107.293 15.168C107.965 14.896 108.677 14.76 109.429 14.76C110.245 14.76 110.981 14.944 111.637 15.312C112.309 15.664 112.837 16.216 113.221 16.968H113.509V15.096H115.381V24.552C115.381 25.032 115.597 25.272 116.029 25.272H116.629V27H115.357C114.813 27 114.365 26.824 114.013 26.472C113.677 26.12 113.509 25.672 113.509 25.128V24.984ZM109.669 25.56C110.229 25.56 110.741 25.456 111.205 25.248C111.685 25.04 112.093 24.744 112.429 24.36C112.765 23.976 113.029 23.52 113.221 22.992C113.413 22.448 113.509 21.848 113.509 21.192V20.904C113.509 20.264 113.413 19.68 113.221 19.152C113.029 18.608 112.757 18.144 112.405 17.76C112.069 17.376 111.661 17.08 111.181 16.872C110.717 16.648 110.213 16.536 109.669 16.536C109.109 16.536 108.597 16.64 108.133 16.848C107.669 17.056 107.261 17.352 106.909 17.736C106.573 18.104 106.309 18.56 106.117 19.104C105.925 19.632 105.829 20.216 105.829 20.856V21.24C105.829 22.6 106.181 23.664 106.885 24.432C107.605 25.184 108.533 25.56 109.669 25.56ZM121.005 27H119.133V10.2H121.005V16.968H121.293C121.709 16.248 122.285 15.704 123.021 15.336C123.757 14.952 124.557 14.76 125.421 14.76C126.157 14.76 126.853 14.896 127.509 15.168C128.165 15.44 128.741 15.832 129.237 16.344C129.749 16.856 130.149 17.488 130.437 18.24C130.741 18.992 130.893 19.848 130.893 20.808V21.288C130.893 22.264 130.749 23.128 130.461 23.88C130.173 24.632 129.773 25.264 129.261 25.776C128.765 26.288 128.181 26.68 127.509 26.952C126.837 27.208 126.125 27.336 125.373 27.336C124.989 27.336 124.597 27.288 124.197 27.192C123.797 27.112 123.413 26.984 123.045 26.808C122.693 26.616 122.365 26.392 122.061 26.136C121.757 25.864 121.501 25.544 121.293 25.176H121.005V27ZM124.989 25.56C125.565 25.56 126.093 25.464 126.573 25.272C127.053 25.064 127.469 24.776 127.821 24.408C128.189 24.04 128.469 23.592 128.661 23.064C128.869 22.536 128.973 21.944 128.973 21.288V20.808C128.973 20.168 128.869 19.592 128.661 19.08C128.469 18.552 128.189 18.104 127.821 17.736C127.469 17.352 127.045 17.056 126.549 16.848C126.069 16.64 125.549 16.536 124.989 16.536C124.429 16.536 123.909 16.648 123.429 16.872C122.949 17.08 122.525 17.376 122.157 17.76C121.805 18.144 121.525 18.608 121.317 19.152C121.109 19.68 121.005 20.264 121.005 20.904V21.192C121.005 21.848 121.109 22.448 121.317 22.992C121.525 23.52 121.805 23.976 122.157 24.36C122.525 24.744 122.949 25.04 123.429 25.248C123.909 25.456 124.429 25.56 124.989 25.56Z" fill="#8689AA"/>
<path d="M7.52267 26.4933C7.36932 26.3415 7.24758 26.1609 7.1645 25.9618C7.08141 25.7627 7.03864 25.5491 7.03864 25.3333C7.03864 25.1176 7.08141 24.9039 7.1645 24.7048C7.24758 24.5057 7.36932 24.3251 7.52267 24.1733C8.63546 23.0597 9.95711 22.1768 11.4118 21.575C12.8665 20.9733 14.4257 20.6646 16 20.6666C17.5743 20.6645 19.1335 20.9732 20.5882 21.5749C22.043 22.1767 23.3646 23.0597 24.4773 24.1733C24.6307 24.3251 24.7524 24.5057 24.8355 24.7048C24.9186 24.9039 24.9614 25.1176 24.9614 25.3333C24.9614 25.5491 24.9186 25.7627 24.8355 25.9618C24.7524 26.1609 24.6307 26.3415 24.4773 26.4933C23.3645 27.6069 22.0429 28.4898 20.5882 29.0916C19.1335 29.6933 17.5743 30.002 16 30C14.4257 30.002 12.8665 29.6933 11.4118 29.0916C9.95711 28.4898 8.63546 27.6069 7.52267 26.4933Z" fill="#8689AA"/>
<path fill-rule="evenodd" clip-rule="evenodd" d="M11.3334 12H20.6667V12.6667H21.3334C21.3334 16.1827 19.092 19.3333 16 19.3333C12.908 19.3333 10.6667 16.1827 10.6667 12.6667H11.3334V12ZM12.0307 13.3333C12.284 16.0907 14.088 18 16 18C17.912 18 19.716 16.0907 19.9694 13.3333H12.0307Z" fill="#8689AA"/>
<path fill-rule="evenodd" clip-rule="evenodd" d="M16 6C19.3134 6 22 8.98533 22 12.6667H10C10 8.98533 12.6867 6 16 6ZM16 12C16.5305 12 17.0392 11.7893 17.4142 11.4142C17.7893 11.0391 18 10.5304 18 10C18 9.46957 17.7893 8.96086 17.4142 8.58579C17.0392 8.21071 16.5305 8 16 8C15.4696 8 14.9609 8.21071 14.5858 8.58579C14.2107 8.96086 14 9.46957 14 10C14 10.5304 14.2107 11.0391 14.5858 11.4142C14.9609 11.7893 15.4696 12 16 12ZM8.66669 13.3333C8.66669 13.1565 8.73693 12.987 8.86195 12.8619C8.98697 12.7369 9.15654 12.6667 9.33335 12.6667H22.6667C22.8435 12.6667 23.0131 12.7369 23.1381 12.8619C23.2631 12.987 23.3334 13.1565 23.3334 13.3333C23.3334 13.5101 23.2631 13.6797 23.1381 13.8047C23.0131 13.9298 22.8435 14 22.6667 14H9.33335C9.15654 14 8.98697 13.9298 8.86195 13.8047C8.73693 13.6797 8.66669 13.5101 8.66669 13.3333Z" fill="#8689AA"/>
</svg>
