<svg width="121" height="36" viewBox="0 0 121 36" fill="none" xmlns="http://www.w3.org/2000/svg">
<path d="M35.528 27H33.656V10.2H35.528V16.968H35.816C36.232 16.248 36.808 15.704 37.544 15.336C38.28 14.952 39.08 14.76 39.944 14.76C40.68 14.76 41.376 14.896 42.032 15.168C42.688 15.44 43.264 15.832 43.76 16.344C44.272 16.856 44.672 17.488 44.96 18.24C45.264 18.992 45.416 19.848 45.416 20.808V21.288C45.416 22.264 45.272 23.128 44.984 23.88C44.696 24.632 44.296 25.264 43.784 25.776C43.288 26.288 42.704 26.68 42.032 26.952C41.36 27.208 40.648 27.336 39.896 27.336C39.512 27.336 39.12 27.288 38.72 27.192C38.32 27.112 37.936 26.984 37.568 26.808C37.216 26.616 36.888 26.392 36.584 26.136C36.28 25.864 36.024 25.544 35.816 25.176H35.528V27ZM39.512 25.56C40.088 25.56 40.616 25.464 41.096 25.272C41.576 25.064 41.992 24.776 42.344 24.408C42.712 24.04 42.992 23.592 43.184 23.064C43.392 22.536 43.496 21.944 43.496 21.288V20.808C43.496 20.168 43.392 19.592 43.184 19.08C42.992 18.552 42.712 18.104 42.344 17.736C41.992 17.352 41.568 17.056 41.072 16.848C40.592 16.64 40.072 16.536 39.512 16.536C38.952 16.536 38.432 16.648 37.952 16.872C37.472 17.08 37.048 17.376 36.68 17.76C36.328 18.144 36.048 18.608 35.84 19.152C35.632 19.68 35.528 20.264 35.528 20.904V21.192C35.528 21.848 35.632 22.448 35.84 22.992C36.048 23.52 36.328 23.976 36.68 24.36C37.048 24.744 37.472 25.04 37.952 25.248C38.432 25.456 38.952 25.56 39.512 25.56ZM48.3753 15.096H52.1193V10.2H53.9913V15.096H58.5993V16.824H53.9913V24.552C53.9913 25.032 54.2073 25.272 54.6393 25.272H58.0233V27H53.9673C53.4233 27 52.9753 26.824 52.6233 26.472C52.2873 26.12 52.1193 25.672 52.1193 25.128V16.824H48.3753V15.096ZM74.6146 22.776C74.4866 23.432 74.2626 24.04 73.9426 24.6C73.6386 25.16 73.2466 25.648 72.7666 26.064C72.2866 26.464 71.7266 26.776 71.0866 27C70.4466 27.224 69.7346 27.336 68.9506 27.336C68.1186 27.336 67.3266 27.2 66.5746 26.928C65.8386 26.656 65.1906 26.264 64.6306 25.752C64.0706 25.224 63.6226 24.584 63.2866 23.832C62.9666 23.08 62.8066 22.216 62.8066 21.24V20.952C62.8066 19.992 62.9666 19.128 63.2866 18.36C63.6226 17.592 64.0706 16.944 64.6306 16.416C65.1906 15.888 65.8386 15.48 66.5746 15.192C67.3266 14.904 68.1186 14.76 68.9506 14.76C69.7026 14.76 70.3986 14.872 71.0386 15.096C71.6786 15.32 72.2386 15.64 72.7186 16.056C73.2146 16.456 73.6146 16.936 73.9186 17.496C74.2386 18.056 74.4546 18.664 74.5666 19.32L72.6946 19.752C72.6466 19.336 72.5266 18.936 72.3346 18.552C72.1586 18.152 71.9106 17.808 71.5906 17.52C71.2866 17.216 70.9106 16.976 70.4626 16.8C70.0146 16.624 69.4946 16.536 68.9026 16.536C68.3266 16.536 67.7826 16.648 67.2706 16.872C66.7746 17.08 66.3346 17.384 65.9506 17.784C65.5666 18.168 65.2626 18.632 65.0386 19.176C64.8306 19.72 64.7266 20.312 64.7266 20.952V21.24C64.7266 21.912 64.8306 22.52 65.0386 23.064C65.2626 23.592 65.5666 24.04 65.9506 24.408C66.3346 24.776 66.7826 25.064 67.2946 25.272C67.8066 25.464 68.3586 25.56 68.9506 25.56C69.5426 25.56 70.0546 25.472 70.4866 25.296C70.9346 25.104 71.3106 24.864 71.6146 24.576C71.9346 24.272 72.1826 23.928 72.3586 23.544C72.5506 23.16 72.6786 22.76 72.7426 22.344L74.6146 22.776ZM78.1739 25.272H82.4939V11.928H78.3179V10.2H84.3659V25.272H88.6859V27H78.1739V25.272ZM101.509 24.984H101.221C100.837 25.784 100.301 26.376 99.6133 26.76C98.9413 27.144 98.2293 27.336 97.4773 27.336C96.6933 27.336 95.9653 27.208 95.2933 26.952C94.6213 26.68 94.0293 26.288 93.5173 25.776C93.0213 25.248 92.6293 24.608 92.3413 23.856C92.0533 23.104 91.9093 22.232 91.9093 21.24V20.856C91.9093 19.88 92.0533 19.016 92.3413 18.264C92.6293 17.512 93.0213 16.88 93.5173 16.368C94.0293 15.84 94.6213 15.44 95.2933 15.168C95.9653 14.896 96.6773 14.76 97.4293 14.76C98.2453 14.76 98.9813 14.944 99.6373 15.312C100.309 15.664 100.837 16.216 101.221 16.968H101.509V15.096H103.381V24.552C103.381 25.032 103.597 25.272 104.029 25.272H104.629V27H103.357C102.813 27 102.365 26.824 102.013 26.472C101.677 26.12 101.509 25.672 101.509 25.128V24.984ZM97.6693 25.56C98.2293 25.56 98.7413 25.456 99.2053 25.248C99.6853 25.04 100.093 24.744 100.429 24.36C100.765 23.976 101.029 23.52 101.221 22.992C101.413 22.448 101.509 21.848 101.509 21.192V20.904C101.509 20.264 101.413 19.68 101.221 19.152C101.029 18.608 100.757 18.144 100.405 17.76C100.069 17.376 99.6613 17.08 99.1813 16.872C98.7173 16.648 98.2133 16.536 97.6693 16.536C97.1093 16.536 96.5973 16.64 96.1333 16.848C95.6693 17.056 95.2613 17.352 94.9093 17.736C94.5733 18.104 94.3093 18.56 94.1173 19.104C93.9253 19.632 93.8293 20.216 93.8293 20.856V21.24C93.8293 22.6 94.1813 23.664 94.8853 24.432C95.6053 25.184 96.5333 25.56 97.6693 25.56ZM109.005 27H107.133V10.2H109.005V16.968H109.293C109.709 16.248 110.285 15.704 111.021 15.336C111.757 14.952 112.557 14.76 113.421 14.76C114.157 14.76 114.853 14.896 115.509 15.168C116.165 15.44 116.741 15.832 117.237 16.344C117.749 16.856 118.149 17.488 118.437 18.24C118.741 18.992 118.893 19.848 118.893 20.808V21.288C118.893 22.264 118.749 23.128 118.461 23.88C118.173 24.632 117.773 25.264 117.261 25.776C116.765 26.288 116.181 26.68 115.509 26.952C114.837 27.208 114.125 27.336 113.373 27.336C112.989 27.336 112.597 27.288 112.197 27.192C111.797 27.112 111.413 26.984 111.045 26.808C110.693 26.616 110.365 26.392 110.061 26.136C109.757 25.864 109.501 25.544 109.293 25.176H109.005V27ZM112.989 25.56C113.565 25.56 114.093 25.464 114.573 25.272C115.053 25.064 115.469 24.776 115.821 24.408C116.189 24.04 116.469 23.592 116.661 23.064C116.869 22.536 116.973 21.944 116.973 21.288V20.808C116.973 20.168 116.869 19.592 116.661 19.08C116.469 18.552 116.189 18.104 115.821 17.736C115.469 17.352 115.045 17.056 114.549 16.848C114.069 16.64 113.549 16.536 112.989 16.536C112.429 16.536 111.909 16.648 111.429 16.872C110.949 17.08 110.525 17.376 110.157 17.76C109.805 18.144 109.525 18.608 109.317 19.152C109.109 19.68 109.005 20.264 109.005 20.904V21.192C109.005 21.848 109.109 22.448 109.317 22.992C109.525 23.52 109.805 23.976 110.157 24.36C110.525 24.744 110.949 25.04 111.429 25.248C111.909 25.456 112.429 25.56 112.989 25.56Z" fill="#8689AA"/>
<path d="M12.101 8.89998C12.2146 8.832 12.3506 8.81186 12.479 8.84398L15.876 9.69098C15.9988 9.72191 16.1052 9.79825 16.1739 9.90459C16.2426 10.0109 16.2683 10.1394 16.246 10.264C18.611 11.371 20.371 13.194 21.061 15.247C21.0966 15.353 21.0956 15.4678 21.0582 15.5732C21.0208 15.6786 20.9492 15.7684 20.8547 15.8282C20.7603 15.8881 20.6486 15.9146 20.5373 15.9035C20.4261 15.8924 20.3217 15.8443 20.241 15.767C19.031 14.607 17.447 13.596 15.599 12.865L15.574 12.965C15.5419 13.0936 15.46 13.2042 15.3464 13.2724C15.2327 13.3407 15.0966 13.361 14.968 13.329L14.483 13.209L13.576 16.847C13.7046 16.8791 13.8152 16.961 13.8835 17.0746C13.9517 17.1883 13.9721 17.3243 13.94 17.453L11.642 26.671C11.6099 26.7996 11.528 26.9102 11.4144 26.9784C11.3007 27.0467 11.1646 27.067 11.036 27.035L8.61002 26.43C8.48141 26.3979 8.37082 26.316 8.30256 26.2023C8.2343 26.0887 8.21396 25.9526 8.24602 25.824L10.544 16.606C10.5761 16.4774 10.658 16.3668 10.7717 16.2985C10.8853 16.2303 11.0214 16.2099 11.15 16.242L12.057 12.604L11.572 12.483C11.5082 12.4671 11.4482 12.4388 11.3954 12.3996C11.3425 12.3605 11.2979 12.3113 11.2641 12.255C11.2303 12.1986 11.208 12.1361 11.1983 12.0711C11.1887 12.006 11.192 11.9397 11.208 11.876L11.233 11.776C9.25902 11.554 7.38602 11.703 5.77302 12.159C5.66544 12.1894 5.55077 12.1829 5.44734 12.1404C5.3439 12.098 5.25766 12.0222 5.2024 11.925C5.14713 11.8278 5.12603 11.7149 5.14245 11.6044C5.15888 11.4938 5.21189 11.3919 5.29302 11.315C6.86502 9.82698 9.27502 9.04298 11.883 9.17498C11.9203 9.06035 11.9977 8.96205 12.101 8.89998Z" fill="#8689AA"/>
</svg>
