<svg width="106" height="30" viewBox="0 0 106 30" fill="none" xmlns="http://www.w3.org/2000/svg">
<path d="M7.50003 25.3333H6.52363C5.41265 25.3333 4.85715 25.3333 4.43209 25.1188C4.05041 24.9261 3.74051 24.6162 3.54785 24.2345C3.3333 23.8095 3.3333 23.254 3.3333 22.143V22.143C3.3333 21.1725 3.3333 20.6873 3.22454 20.2305C3.12615 19.8172 2.96254 19.4222 2.73987 19.0604C2.49375 18.6605 2.15063 18.3174 1.4644 17.6311L0.833252 17L1.46439 16.3689C2.15063 15.6826 2.49376 15.3395 2.73988 14.9396C2.96254 14.5778 3.12614 14.1828 3.22454 13.7695C3.3333 13.3127 3.3333 12.8275 3.3333 11.857V11.857C3.3333 10.746 3.3333 10.1905 3.54786 9.76542C3.74051 9.38375 4.05041 9.07385 4.43208 8.8812C4.85716 8.66664 5.41266 8.66665 6.52367 8.66665C6.86487 8.66666 7.19284 8.66666 7.50003 8.66667M12.5 8.66667C12.8065 8.66666 13.1346 8.66665 13.4764 8.66665C14.5874 8.66665 15.1429 8.66665 15.568 8.8812C15.9496 9.07385 16.2595 9.38375 16.4522 9.76543C16.6668 10.1905 16.6668 10.746 16.6668 11.857V11.857C16.6668 12.8275 16.6668 13.3127 16.7755 13.7695C16.8739 14.1828 17.0375 14.5778 17.2602 14.9396C17.5063 15.3395 17.8494 15.6826 18.5357 16.3689L19.1668 17L18.5357 17.6311C17.8494 18.3174 17.5063 18.6605 17.2602 19.0604C17.0375 19.4222 16.8739 19.8172 16.7755 20.2305C16.6668 20.6873 16.6668 21.1725 16.6668 22.143V22.143C16.6668 23.254 16.6668 23.8095 16.4522 24.2345C16.2595 24.6162 15.9496 24.9261 15.568 25.1188C15.1429 25.3333 14.5874 25.3333 13.4764 25.3333H12.5M10.4167 12.8333C10.4167 13.0634 10.2301 13.25 10 13.25C9.7699 13.25 9.58335 13.0634 9.58335 12.8333M10.4167 12.8333C10.4167 12.6032 10.2301 12.4167 10 12.4167C9.7699 12.4167 9.58335 12.6032 9.58335 12.8333M10.4167 12.8333H9.58335M10.4167 17C10.4167 17.2301 10.2301 17.4167 10 17.4167C9.7699 17.4167 9.58335 17.2301 9.58335 17M10.4167 17C10.4167 16.7699 10.2301 16.5833 10 16.5833C9.7699 16.5833 9.58335 16.7699 9.58335 17M10.4167 17H9.58335M10.4167 21.1667C10.4167 21.3968 10.2301 21.5833 10 21.5833C9.7699 21.5833 9.58335 21.3968 9.58335 21.1667M10.4167 21.1667C10.4167 20.9365 10.2301 20.75 10 20.75C9.7699 20.75 9.58335 20.9365 9.58335 21.1667M10.4167 21.1667H9.58335" stroke="#F9A136" stroke-width="1.5" stroke-linecap="round" stroke-linejoin="round"/>
<path d="M43.02 19.48C42.9133 20.0267 42.7267 20.5333 42.46 21C42.2067 21.4667 41.88 21.8733 41.48 22.22C41.08 22.5533 40.6133 22.8133 40.08 23C39.5467 23.1867 38.9533 23.28 38.3 23.28C37.6067 23.28 36.9467 23.1667 36.32 22.94C35.7067 22.7133 35.1667 22.3867 34.7 21.96C34.2333 21.52 33.86 20.9867 33.58 20.36C33.3133 19.7333 33.18 19.0133 33.18 18.2V17.96C33.18 17.16 33.3133 16.44 33.58 15.8C33.86 15.16 34.2333 14.62 34.7 14.18C35.1667 13.74 35.7067 13.4 36.32 13.16C36.9467 12.92 37.6067 12.8 38.3 12.8C38.9267 12.8 39.5067 12.8933 40.04 13.08C40.5733 13.2667 41.04 13.5333 41.44 13.88C41.8533 14.2133 42.1867 14.6133 42.44 15.08C42.7067 15.5467 42.8867 16.0533 42.98 16.6L41.42 16.96C41.38 16.6133 41.28 16.28 41.12 15.96C40.9733 15.6267 40.7667 15.34 40.5 15.1C40.2467 14.8467 39.9333 14.6467 39.56 14.5C39.1867 14.3533 38.7533 14.28 38.26 14.28C37.78 14.28 37.3267 14.3733 36.9 14.56C36.4867 14.7333 36.12 14.9867 35.8 15.32C35.48 15.64 35.2267 16.0267 35.04 16.48C34.8667 16.9333 34.78 17.4267 34.78 17.96V18.2C34.78 18.76 34.8667 19.2667 35.04 19.72C35.2267 20.16 35.48 20.5333 35.8 20.84C36.12 21.1467 36.4933 21.3867 36.92 21.56C37.3467 21.72 37.8067 21.8 38.3 21.8C38.7933 21.8 39.22 21.7267 39.58 21.58C39.9533 21.42 40.2667 21.22 40.52 20.98C40.7867 20.7267 40.9933 20.44 41.14 20.12C41.3 19.8 41.4067 19.4667 41.46 19.12L43.02 19.48ZM49.0661 10.12C49.0661 9.73333 49.1994 9.40667 49.4661 9.14C49.7461 8.86 50.0794 8.72 50.4661 8.72C50.8528 8.72 51.1794 8.86 51.4461 9.14C51.7261 9.40667 51.8661 9.73333 51.8661 10.12C51.8661 10.5067 51.7261 10.84 51.4461 11.12C51.1794 11.3867 50.8528 11.52 50.4661 11.52C50.0794 11.52 49.7461 11.3867 49.4661 11.12C49.1994 10.84 49.0661 10.5067 49.0661 10.12ZM46.2261 21.56H49.7061V14.52H46.5861V13.08H51.2661V21.56H54.5061V23H46.2261V21.56ZM59.4322 27H57.8722V13.08H59.4322V14.64H59.6722C60.0189 14.04 60.4989 13.5867 61.1122 13.28C61.7255 12.96 62.3922 12.8 63.1122 12.8C63.7255 12.8 64.3055 12.9133 64.8522 13.14C65.3989 13.3667 65.8789 13.6933 66.2922 14.12C66.7189 14.5467 67.0522 15.0733 67.2922 15.7C67.5455 16.3267 67.6722 17.04 67.6722 17.84V18.24C67.6722 19.0533 67.5522 19.7733 67.3122 20.4C67.0722 21.0267 66.7389 21.5533 66.3122 21.98C65.8989 22.4067 65.4122 22.7333 64.8522 22.96C64.2922 23.1733 63.6989 23.28 63.0722 23.28C62.7522 23.28 62.4255 23.24 62.0922 23.16C61.7589 23.0933 61.4389 22.9867 61.1322 22.84C60.8389 22.68 60.5655 22.4933 60.3122 22.28C60.0589 22.0533 59.8455 21.7867 59.6722 21.48H59.4322V27ZM62.7522 21.8C63.2322 21.8 63.6722 21.72 64.0722 21.56C64.4722 21.3867 64.8189 21.1467 65.1122 20.84C65.4189 20.5333 65.6522 20.16 65.8122 19.72C65.9855 19.28 66.0722 18.7867 66.0722 18.24V17.84C66.0722 17.3067 65.9855 16.8267 65.8122 16.4C65.6522 15.96 65.4189 15.5867 65.1122 15.28C64.8189 14.96 64.4655 14.7133 64.0522 14.54C63.6522 14.3667 63.2189 14.28 62.7522 14.28C62.2855 14.28 61.8522 14.3733 61.4522 14.56C61.0522 14.7333 60.6989 14.98 60.3922 15.3C60.0989 15.62 59.8655 16.0067 59.6922 16.46C59.5189 16.9 59.4322 17.3867 59.4322 17.92V18.16C59.4322 18.7067 59.5189 19.2067 59.6922 19.66C59.8655 20.1 60.0989 20.48 60.3922 20.8C60.6989 21.12 61.0522 21.3667 61.4522 21.54C61.8522 21.7133 62.2855 21.8 62.7522 21.8ZM72.0383 23H70.4783V9H72.0383V14.88H72.2783C72.5849 14.24 73.0116 13.7333 73.5583 13.36C74.1183 12.9867 74.7983 12.8 75.5983 12.8C76.6783 12.8 77.5516 13.16 78.2183 13.88C78.8983 14.5867 79.2383 15.6533 79.2383 17.08V23H77.6783V17.4C77.6783 16.36 77.4449 15.58 76.9783 15.06C76.5116 14.54 75.8783 14.28 75.0783 14.28C74.1316 14.28 73.3849 14.6067 72.8383 15.26C72.3049 15.9 72.0383 16.76 72.0383 17.84V23ZM83.8644 18.52C83.9044 19.5067 84.211 20.3 84.7844 20.9C85.3577 21.5 86.1577 21.8 87.1844 21.8C87.651 21.8 88.0577 21.7467 88.4044 21.64C88.751 21.5333 89.0444 21.3867 89.2844 21.2C89.5377 21.0133 89.7377 20.8 89.8844 20.56C90.0444 20.3067 90.171 20.04 90.2644 19.76L91.7444 20.16C91.4644 21.08 90.9444 21.8333 90.1844 22.42C89.4377 22.9933 88.4244 23.28 87.1444 23.28C86.4377 23.28 85.7844 23.16 85.1844 22.92C84.5977 22.6667 84.091 22.3133 83.6644 21.86C83.2377 21.4067 82.9044 20.8667 82.6644 20.24C82.4244 19.6133 82.3044 18.92 82.3044 18.16V17.68C82.3044 16.9867 82.4244 16.34 82.6644 15.74C82.9177 15.14 83.2644 14.6267 83.7044 14.2C84.1444 13.76 84.6577 13.42 85.2444 13.18C85.8444 12.9267 86.491 12.8 87.1844 12.8C87.9977 12.8 88.6977 12.9533 89.2844 13.26C89.8844 13.5533 90.371 13.92 90.7444 14.36C91.131 14.8 91.411 15.28 91.5844 15.8C91.771 16.32 91.8644 16.8 91.8644 17.24V18.52H83.8644ZM87.1844 14.28C86.7444 14.28 86.331 14.3533 85.9444 14.5C85.571 14.6333 85.2377 14.8267 84.9444 15.08C84.6644 15.3333 84.431 15.6333 84.2444 15.98C84.071 16.3133 83.9577 16.68 83.9044 17.08H90.3044C90.2777 16.6533 90.171 16.2667 89.9844 15.92C89.811 15.5733 89.5777 15.28 89.2844 15.04C89.0044 14.8 88.6777 14.6133 88.3044 14.48C87.9444 14.3467 87.571 14.28 87.1844 14.28ZM94.4105 13.08H98.0105V14.4H98.2505C98.5038 13.8533 98.8638 13.4533 99.3305 13.2C99.7971 12.9333 100.33 12.8 100.93 12.8C101.93 12.8 102.737 13.1267 103.35 13.78C103.964 14.4333 104.29 15.3867 104.33 16.64L102.69 16.88C102.69 15.96 102.47 15.3 102.03 14.9C101.59 14.4867 101.05 14.28 100.41 14.28C99.9971 14.28 99.6371 14.36 99.3305 14.52C99.0371 14.68 98.7905 14.9 98.5905 15.18C98.3905 15.46 98.2438 15.7867 98.1505 16.16C98.0571 16.5333 98.0105 16.9333 98.0105 17.36V21.56H100.53V23H94.1705V21.56H96.4505V14.52H94.4105V13.08Z" fill="#F9A136"/>
</svg>
