<svg xmlns="http://www.w3.org/2000/svg" xmlns:xlink="http://www.w3.org/1999/xlink">
  <defs>
    <symbol id="alert-triangle" xmlns="http://www.w3.org/2000/svg" width="24" height="24" fill="none" viewBox="0 0 24 24">
      <path stroke="currentColor" stroke-linecap="round" stroke-linejoin="round" stroke-width="1.5" d="M12 13V9m.5 7.5a.5.5 0 0 1-1 0m1 0a.5.5 0 0 0-1 0m1 0h-1m7.831-6.409-.351-.627c-2.281-4.073-3.422-6.11-4.922-6.788a5 5 0 0 0-4.116 0c-1.5.678-2.64 2.715-4.922 6.788l-.351.627c-2.193 3.916-3.29 5.874-3.106 7.477a5 5 0 0 0 2.045 3.489C4.917 22 7.16 22 11.649 22h.702c4.488 0 6.732 0 8.041-.943a5 5 0 0 0 2.045-3.489c.183-1.603-.913-3.561-3.106-7.477Z"/>
    </symbol>

    <symbol id="btc-filled" xmlns="http://www.w3.org/2000/svg" fill="currentColor" viewBox="0 0 24 24">
      <path d="M10.864 14.36c.806.213 2.567.678 2.847-.447.287-1.151-1.422-1.534-2.255-1.721-.093-.02-.175-.04-.243-.056l-.542 2.174c.055.013.12.03.193.05zm.759-3.177c.672.18 2.138.57 2.393-.452.26-1.046-1.164-1.36-1.86-1.515a8.488 8.488 0 0 1-.203-.047l-.492 1.972c.047.011.101.026.162.042z"/>
      <path fill-rule="evenodd" d="M9.822 20.73a9 9 0 0 0 4.354-17.46A8.998 8.998 0 0 0 3.27 9.823 8.997 8.997 0 0 0 9.822 20.73zm4.165-12.252c1.247.43 2.16 1.073 1.98 2.27-.13.877-.616 1.302-1.261 1.45.886.462 1.337 1.17.907 2.396-.532 1.522-1.799 1.65-3.483 1.332l-.409 1.638-.987-.246.403-1.616a39.13 39.13 0 0 1-.787-.204l-.405 1.623-.986-.246.408-1.64-.256-.067-.448-.115-1.285-.32.49-1.13s.728.193.718.178c.28.07.404-.113.453-.234l.646-2.589a9.9 9.9 0 0 1 .084.021l.02.005a.816.816 0 0 0-.103-.033l.46-1.848c.013-.21-.06-.475-.46-.574.016-.01-.716-.179-.716-.179l.262-1.054 1.362.34v.005c.204.05.415.099.63.148l.405-1.622.986.246-.396 1.59c.265.06.532.121.791.186l.394-1.58.988.247-.405 1.622z" clip-rule="evenodd"/>
    </symbol>

    <symbol id="github-filled" xmlns="http://www.w3.org/2000/svg" width="24" height="24" fill="none" viewBox="0 0 24 24">
      <path fill="currentColor" d="M14.51 20.906c.01-.504.025-1.247.025-1.906 0-1-.68-1.918-.68-1.918 2.258-.248 4.637-1.578 4.637-5.543 0-1.156-.403-1.693-1.049-2.436l.015-.05c.1-.35.4-1.387-.135-2.758-.847-.29-2.783 1.115-2.783 1.115-.806-.248-1.653-.33-2.54-.33-.847 0-1.694.082-2.5.33 0 0-1.976-1.363-2.782-1.115-.565 1.445-.242 2.519-.121 2.808-.645.743-.968 1.28-.968 2.436 0 3.965 2.298 5.295 4.556 5.543 0 0-.685.78-.685 1.85v3.526C4.769 21.33 1.25 17.076 1.25 12 1.25 6.063 6.063 1.25 12 1.25S22.75 6.063 22.75 12c0 5.073-3.514 9.325-8.24 10.456v-1.55Z"/>
    </symbol>

    <symbol id="input" xmlns="http://www.w3.org/2000/svg" width="24" height="24" fill="none" viewBox="0 0 24 24">
      <path stroke="currentColor" stroke-linecap="round" stroke-linejoin="round" stroke-width="1.5" d="M8 8v-.5 0c0-1.396 0-2.093.172-2.661a4 4 0 0 1 2.667-2.667C11.407 2 12.104 2 13.5 2h2.1c2.24 0 3.36 0 4.216.436a4 4 0 0 1 1.748 1.748C22 5.04 22 6.16 22 8.4v7.2c0 2.24 0 3.36-.436 4.216a4 4 0 0 1-1.748 1.748C18.96 22 17.84 22 15.6 22h-2.1c-1.396 0-2.093 0-2.661-.172a4 4 0 0 1-2.667-2.667C8 18.593 8 17.896 8 16.5v0-.5m-6-4h15m0 0-4-4m4 4-4 4"/>
    </symbol> 

    <symbol id="output" xmlns="http://www.w3.org/2000/svg" width="24" height="24" fill="none" viewBox="0 0 24 24">
      <path stroke="currentColor" stroke-linecap="round" stroke-linejoin="round" stroke-width="1.5" d="M14 16v.5c0 1.396 0 2.094-.172 2.662a4 4 0 0 1-2.667 2.666C10.594 22 9.895 22 8.5 22H8c-1.864 0-2.796 0-3.53-.304a4 4 0 0 1-2.166-2.165C2 18.796 2 17.864 2 16.001V8c0-1.864 0-2.796.304-3.531A4 4 0 0 1 4.47 2.305C5.204 2 6.136 2 8 2h.5c1.396 0 2.093 0 2.66.173a4 4 0 0 1 2.668 2.667C14 5.407 14 6.105 14 7.5V8m-5 4h13m0 0-4-4m4 4-4 4"/>
    </symbol>

    <symbol id="sats-filled" xmlns="http://www.w3.org/2000/svg" fill="currentColor" viewBox="0 0 24 24">
      <path fill-rule="evenodd" d="M21 12a9 9 0 1 1-18 0 9 9 0 0 1 18 0zM8.693 8.742l7.637 2.063.337-1.462L9.029 7.28l-.336 1.462zm5.526-3.05-.406 1.774-1.448-.392.407-1.774 1.447.392zM11.227 18.7l.408-1.774-1.448-.391-.408 1.774 1.448.391zm4.421-4.934L8.011 11.7l.336-1.462 7.637 2.066-.336 1.462zm-8.316.89 7.638 2.064.336-1.462-7.638-2.064-.336 1.462z" clip-rule="evenodd"/>
    </symbol>
  </defs>
</svg>

