<svg xmlns="http://www.w3.org/2000/svg" xmlns:xlink="http://www.w3.org/1999/xlink">
  <defs>
    <symbol id="alert-triangle" xmlns="http://www.w3.org/2000/svg" width="24" height="24" fill="none" viewBox="0 0 24 24">
      <path stroke="currentColor" stroke-linecap="round" stroke-linejoin="round" stroke-width="1.5" d="M12 13V9m.5 7.5a.5.5 0 0 1-1 0m1 0a.5.5 0 0 0-1 0m1 0h-1m7.831-6.409-.351-.627c-2.281-4.073-3.422-6.11-4.922-6.788a5 5 0 0 0-4.116 0c-1.5.678-2.64 2.715-4.922 6.788l-.351.627c-2.193 3.916-3.29 5.874-3.106 7.477a5 5 0 0 0 2.045 3.489C4.917 22 7.16 22 11.649 22h.702c4.488 0 6.732 0 8.041-.943a5 5 0 0 0 2.045-3.489c.183-1.603-.913-3.561-3.106-7.477Z"/>
    </symbol>

    <symbol id="arrow-right" xmlns="http://www.w3.org/2000/svg" width="24" height="24" fill="none" viewBox="0 0 24 24">
      <path stroke="currentColor" stroke-linecap="round" stroke-linejoin="round" stroke-width="1.5" d="M8 8v-.5 0c0-1.396 0-2.093.172-2.661a4 4 0 0 1 2.667-2.667C11.407 2 12.104 2 13.5 2h2.1c2.24 0 3.36 0 4.216.436a4 4 0 0 1 1.748 1.748C22 5.04 22 6.16 22 8.4v7.2c0 2.24 0 3.36-.436 4.216a4 4 0 0 1-1.748 1.748C18.96 22 17.84 22 15.6 22h-2.1c-1.396 0-2.093 0-2.661-.172a4 4 0 0 1-2.667-2.667C8 18.593 8 17.896 8 16.5v0-.5m-6-4h15m0 0-4-4m4 4-4 4"/>
    </symbol>
  </defs>
</svg>

