<svg xmlns="http://www.w3.org/2000/svg" xmlns:xlink="http://www.w3.org/1999/xlink">
  <defs>
    <symbol id="alert-triangle" xmlns="http://www.w3.org/2000/svg" width="24" height="24" fill="none" viewBox="0 0 24 24">
      <path stroke="currentColor" stroke-linecap="round" stroke-linejoin="round" stroke-width="1.5" d="M12 13V9m.5 7.5a.5.5 0 0 1-1 0m1 0a.5.5 0 0 0-1 0m1 0h-1m7.831-6.409-.351-.627c-2.281-4.073-3.422-6.11-4.922-6.788a5 5 0 0 0-4.116 0c-1.5.678-2.64 2.715-4.922 6.788l-.351.627c-2.193 3.916-3.29 5.874-3.106 7.477a5 5 0 0 0 2.045 3.489C4.917 22 7.16 22 11.649 22h.702c4.488 0 6.732 0 8.041-.943a5 5 0 0 0 2.045-3.489c.183-1.603-.913-3.561-3.106-7.477Z"/>
    </symbol>

    <symbol id="btc-filled" xmlns="http://www.w3.org/2000/svg" fill="currentColor" viewBox="0 0 24 24">
      <path d="M10.864 14.36c.806.213 2.567.678 2.847-.447.287-1.151-1.422-1.534-2.255-1.721-.093-.02-.175-.04-.243-.056l-.542 2.174c.055.013.12.03.193.05zm.759-3.177c.672.18 2.138.57 2.393-.452.26-1.046-1.164-1.36-1.86-1.515a8.488 8.488 0 0 1-.203-.047l-.492 1.972c.047.011.101.026.162.042z"/>
      <path fill-rule="evenodd" d="M9.822 20.73a9 9 0 0 0 4.354-17.46A8.998 8.998 0 0 0 3.27 9.823 8.997 8.997 0 0 0 9.822 20.73zm4.165-12.252c1.247.43 2.16 1.073 1.98 2.27-.13.877-.616 1.302-1.261 1.45.886.462 1.337 1.17.907 2.396-.532 1.522-1.799 1.65-3.483 1.332l-.409 1.638-.987-.246.403-1.616a39.13 39.13 0 0 1-.787-.204l-.405 1.623-.986-.246.408-1.64-.256-.067-.448-.115-1.285-.32.49-1.13s.728.193.718.178c.28.07.404-.113.453-.234l.646-2.589a9.9 9.9 0 0 1 .084.021l.02.005a.816.816 0 0 0-.103-.033l.46-1.848c.013-.21-.06-.475-.46-.574.016-.01-.716-.179-.716-.179l.262-1.054 1.362.34v.005c.204.05.415.099.63.148l.405-1.622.986.246-.396 1.59c.265.06.532.121.791.186l.394-1.58.988.247-.405 1.622z" clip-rule="evenodd"/>
    </symbol>

    <symbol id="github-filled" xmlns="http://www.w3.org/2000/svg" width="24" height="24" fill="none" viewBox="0 0 24 24">
      <path fill="currentColor" d="M14.51 20.906c.01-.504.025-1.247.025-1.906 0-1-.68-1.918-.68-1.918 2.258-.248 4.637-1.578 4.637-5.543 0-1.156-.403-1.693-1.049-2.436l.015-.05c.1-.35.4-1.387-.135-2.758-.847-.29-2.783 1.115-2.783 1.115-.806-.248-1.653-.33-2.54-.33-.847 0-1.694.082-2.5.33 0 0-1.976-1.363-2.782-1.115-.565 1.445-.242 2.519-.121 2.808-.645.743-.968 1.28-.968 2.436 0 3.965 2.298 5.295 4.556 5.543 0 0-.685.78-.685 1.85v3.526C4.769 21.33 1.25 17.076 1.25 12 1.25 6.063 6.063 1.25 12 1.25S22.75 6.063 22.75 12c0 5.073-3.514 9.325-8.24 10.456v-1.55Z"/>
    </symbol>

    <symbol id="input" xmlns="http://www.w3.org/2000/svg" width="24" height="24" fill="none" viewBox="0 0 24 24">
      <path stroke="currentColor" stroke-linecap="round" stroke-linejoin="round" stroke-width="1.5" d="M8 8v-.5 0c0-1.396 0-2.093.172-2.661a4 4 0 0 1 2.667-2.667C11.407 2 12.104 2 13.5 2h2.1c2.24 0 3.36 0 4.216.436a4 4 0 0 1 1.748 1.748C22 5.04 22 6.16 22 8.4v7.2c0 2.24 0 3.36-.436 4.216a4 4 0 0 1-1.748 1.748C18.96 22 17.84 22 15.6 22h-2.1c-1.396 0-2.093 0-2.661-.172a4 4 0 0 1-2.667-2.667C8 18.593 8 17.896 8 16.5v0-.5m-6-4h15m0 0-4-4m4 4-4 4"/>
    </symbol> 

    <symbol id="ocaml" xmlns="http://www.w3.org/2000/svg" viewBox="0 0 128 128">
      <defs>
        <linearGradient id="a" x1="82.925" x2="82.925" y1="97.718" y2="97.9" gradientTransform="translate(0 8.224) scale(.77317)" gradientUnits="userSpaceOnUse">
          <stop offset="0" stop-color="#F29100"/>
          <stop offset="1" stop-color="#EC670F"/>
        </linearGradient>
        <linearGradient id="b" x1="61.276" x2="61.276" y1="98.981" y2="144.277" gradientTransform="translate(0 8.224) scale(.77317)" gradientUnits="userSpaceOnUse">
          <stop offset="0" stop-color="#F29100"/>
          <stop offset="1" stop-color="#EC670F"/>
        </linearGradient>
        <linearGradient id="c" x1="82.781" x2="82.781" y1="0" y2="144.245" gradientTransform="translate(0 8.224) scale(.77317)" gradientUnits="userSpaceOnUse">
          <stop offset="0" stop-color="#F29100"/>
          <stop offset="1" stop-color="#EC670F"/>
        </linearGradient>
        <linearGradient id="d" x1="22.871" x2="22.871" y1="92.114" y2="143.249" gradientTransform="translate(0 8.224) scale(.77317)" gradientUnits="userSpaceOnUse">
          <stop offset="0" stop-color="#F29100"/>
           <stop offset="1" stop-color="#EC670F"/>
        </linearGradient>
      </defs>
      <path fill="#484444" d="m64.11 83.918.019-.047c-.027-.117-.035-.148-.02.047zm0 0"/>
      <path fill="url(#a)" d="m64.11 83.918.019-.047c-.027-.117-.035-.148-.02.047zm0 0"/>
      <path fill="url(#b)" d="M64.969 115.441c-.45-.937-1.016-2.773-1.39-3.582-.356-.754-1.434-2.722-1.974-3.355-1.175-1.375-1.453-1.477-1.796-3.215-.602-3.023-2.192-8.508-4.067-12.293-.969-1.953-2.578-3.594-4.05-5.012-1.286-1.242-4.184-3.332-4.692-3.226-4.734.945-6.203 5.59-8.434 9.27-1.23 2.034-2.535 3.765-3.507 5.929-.899 1.992-.817 4.195-2.352 5.902-1.578 1.758-2.602 3.625-3.371 5.891-.148.43-.563 4.953-1.016 6.027l7.04-.496c6.558.45 4.663 2.965 14.902 2.414l16.164-.5c-.504-1.48-1.196-3.195-1.461-3.754zm0 0"/>
      <path fill="url(#c)" d="M111.875 8.223H16.133C7.227 8.227.008 15.445.008 24.352v35.183c2.308-.836 5.625-5.742 6.664-6.937 1.82-2.086 2.148-4.75 3.055-6.426 2.066-3.82 2.421-6.445 7.109-6.445 2.187 0 3.055.503 4.535 2.488 1.027 1.379 2.809 3.93 3.637 5.633.96 1.968 2.527 4.629 3.215 5.164.511.402 1.015.699 1.488.875.758.289 1.39-.235 1.898-.64.649-.52.93-1.571 1.532-2.977.867-2.028 1.808-4.458 2.347-5.31.93-1.464 1.246-3.202 2.25-4.046 1.485-1.242 3.414-1.328 3.95-1.434 2.976-.59 4.328 1.434 5.792 2.743.961.855 2.27 2.582 3.204 4.89.726 1.809 1.652 3.48 2.039 4.524.375 1.004 1.3 2.62 1.847 4.55.496 1.758 1.828 3.106 2.332 3.938 0 0 .774 2.168 5.48 4.152 1.02.43 3.083 1.13 4.313 1.575 2.047.746 4.028.648 6.551.347 1.797 0 2.774-2.605 3.59-4.691.484-1.23.945-4.766 1.262-5.766.304-.976-.41-1.73.199-2.586.71-1 1.133-1.054 1.543-2.355.883-2.785 5.984-2.926 8.847-2.926 2.399 0 2.086 2.32 6.141 1.527 2.32-.457 4.559.297 7.024.95 2.074.55 4.023 1.175 5.195 2.546.758.887 2.633 5.325.719 5.516.183.223.32.629.664.852-.426 1.675-2.282.48-3.309.265-1.39-.285-2.367.043-3.726.645-2.32 1.035-5.715.914-7.739 2.597-1.715 1.43-1.71 4.614-2.511 6.399 0 0-2.223 5.719-7.075 9.215-1.242.898-3.668 3.054-8.953 3.87-2.367.368-4.586.395-7.02.274l-3.511-.133c-.695-.003-3.063-.082-2.945.145l-.266.656c.043.219.129.754.152.887.098.527.125.95.145 1.437.035 1-.082 2.043-.031 3.055.105 2.094.882 4.008.98 6.121.11 2.356 1.274 4.844 2.399 6.77.43.73 1.078.812 1.363 1.715.332 1.03.02 2.129.18 3.23.632 4.266 1.855 8.73 3.785 12.582a.685.685 0 0 0 .043.094c2.375-.395 4.754-1.25 7.84-1.707 5.652-.836 13.519-.406 18.57-.88 12.781-1.198 19.719 5.243 31.203 2.602V24.352c-.004-8.907-7.223-16.13-16.129-16.13zM64.109 83.918c-.015-.195-.007-.168.02-.047zm0 0"/>
      <path fill="url(#d)" d="M29.516 98.727c.89-1.946 1.406-4.165 2.144-6.157.711-1.906 1.817-4.61 3.7-5.57-.227-.27-3.938-.39-4.93-.492l-3.2-.453-6.164-1.27c-1.199-.289-5.187-1.703-6.054-2.101-2.032-.938-3.383-3.48-4.969-3.22-1.016.165-2.012.513-2.633 1.536-.515.836-.691 2.27-1.047 3.23-.414 1.118-1.129 2.16-1.754 3.223-1.152 1.95-3.222 3.715-4.113 5.617-.18.39-.34.828-.488 1.285v21.735l3.347.722c8.993 2.403 11.188 2.606 20.008 1.594l.828-.11c.672-1.405 1.196-6.187 1.633-7.667.34-1.137.809-2.04.988-3.2.168-1.1-.015-2.148-.113-3.152-.242-2.504 1.828-3.398 2.82-5.55zm0 0"/>
    </symbol>

    <symbol id="output" xmlns="http://www.w3.org/2000/svg" width="24" height="24" fill="none" viewBox="0 0 24 24">
      <path stroke="currentColor" stroke-linecap="round" stroke-linejoin="round" stroke-width="1.5" d="M14 16v.5c0 1.396 0 2.094-.172 2.662a4 4 0 0 1-2.667 2.666C10.594 22 9.895 22 8.5 22H8c-1.864 0-2.796 0-3.53-.304a4 4 0 0 1-2.166-2.165C2 18.796 2 17.864 2 16.001V8c0-1.864 0-2.796.304-3.531A4 4 0 0 1 4.47 2.305C5.204 2 6.136 2 8 2h.5c1.396 0 2.093 0 2.66.173a4 4 0 0 1 2.668 2.667C14 5.407 14 6.105 14 7.5V8m-5 4h13m0 0-4-4m4 4-4 4"/>
    </symbol>

    <symbol id="sats-filled" xmlns="http://www.w3.org/2000/svg" fill="currentColor" viewBox="0 0 24 24">
      <path fill-rule="evenodd" d="M21 12a9 9 0 1 1-18 0 9 9 0 0 1 18 0zM8.693 8.742l7.637 2.063.337-1.462L9.029 7.28l-.336 1.462zm5.526-3.05-.406 1.774-1.448-.392.407-1.774 1.447.392zM11.227 18.7l.408-1.774-1.448-.391-.408 1.774 1.448.391zm4.421-4.934L8.011 11.7l.336-1.462 7.637 2.066-.336 1.462zm-8.316.89 7.638 2.064.336-1.462-7.638-2.064-.336 1.462z" clip-rule="evenodd"/>
    </symbol>
  </defs>
</svg>

